<svg viewBox="0 0 120 46.2" xmlns="http://www.w3.org/2000/svg"><path d="m55.9 40.6 1.2 3.5.8-2.4c.1-.4.3-.8.4-1.1h1.6l-1.6 4c-.3.6-.4 1-.6 1.5l-1.2.1-1.6-3.9c-.2-.5-.4-1.1-.7-1.6zm7.6-.1c-1.7 0-2.8 1.3-2.8 3 0 1.5 1.1 2.7 2.7 2.7 1.7 0 2.8-1.3 2.8-3 0-1.5-1.1-2.7-2.7-2.7zm-.1 4.4c-.7 0-1.3-.6-1.3-1.7 0-.9.5-1.6 1.3-1.6.7 0 1.3.6 1.3 1.7 0 .9-.5 1.6-1.3 1.6zm3.6 1.1 1.9-2.8-.7-1.1-1-1.5 1.7-.1 1.1 1.7.4-.6c.2-.3.5-.7.7-1h1.7l-1.8 2.7.7 1c.3.5.8 1.3 1.2 1.8l-2-.1-1.1-1.8-.4.6c-.2.3-.5.9-.7 1.2zm9.7-1.8.2-1.7c.1-.5.2-1.5.2-1.9h1.2c.1.3.3.7.5 1.1l1 2.2 1-2.3c.1-.3.3-.7.5-1h1.1c0 .5.2 1.4.2 1.9l.2 1.7c.1.5.2 1.5.3 1.9l-1.5.1c0-.2-.1-.9-.1-1.2l-.2-1.7c-.4.9-1 2.6-1.1 2.9h-.8l-1.2-2.8-.2 1.5c0 .3-.1.9-.1 1.1h-1.5c.1-.4.2-1.3.3-1.8zm11.7 1.8h-3.7v-3.6-1.9h3.6c0 .4-.1.8-.1 1.2h-2v.9h1.7v1.1h-1.6v1.1h2.2c-.1.4-.1.8-.1 1.2zm3.5-5.4h-1.8v5.4h2c1.8 0 2.9-1.1 3-2.8-.1-1.7-1.2-2.6-3.2-2.6zm.2 4.2h-.4v-2.7-.3h.4c.9 0 1.5.5 1.5 1.5-.1.9-.5 1.5-1.5 1.5zm4.5 1.2v-3.6-1.9h1.6v5.4zm8.1-1.6-1.7-3.9-1.2.1c-.1.4-.3.8-.6 1.5l-1.7 3.9h1.6c0-.1.3-.7.4-1h1.9l.4 1 1.6-.1c-.2-.4-.5-1-.7-1.5zm-2.9-.3.6-1.7.6 1.7zm-56.2.5c0 .8-.5 1.2-1.4 1.2h-1.6v-4.1h1.5c.9 0 1.4.4 1.4 1.1 0 .4-.2.8-.5.9.4.1.6.5.6.9zm-1.5-1.2c.5 0 .7-.2.7-.6s-.3-.6-.7-.6h-.8v1.1zm-.8 1.8h.9c.5 0 .7-.2.7-.6s-.3-.6-.7-.6h-.9zm6-3.6h.7l-1.5 2.5v1.7h-.7v-1.7l-1.5-2.5h.8l1.1 1.9zm-6.7-24c0-6.7 5.2-12 11.8-12 3.5 0 6.8 1.5 9 4.2.2.3.4.6.4 1 0 .8-.6 1.4-1.4 1.4-.4 0-.8-.2-1.1-.6-1.6-2-4-3.3-6.9-3.3-5 0-8.9 4.1-8.9 9.3s3.9 9.3 8.9 9.3c2.9 0 5.3-1.3 6.9-3.3.4-.4.8-.6 1.1-.6.8 0 1.4.6 1.4 1.4 0 .4-.2.7-.4 1-2.2 2.7-5.5 4.3-9 4.2-6.6 0-11.8-5.3-11.8-12zm23.5 3.2c0-4.9 3.8-8.8 8.8-8.8s8.7 3.9 8.7 8.8-3.8 8.8-8.7 8.8-8.8-3.9-8.8-8.8zm14.8 0c0-3.5-2.6-6.4-6.1-6.4s-6.1 2.8-6.1 6.4c0 3.5 2.7 6.4 6.1 6.4 3.5-.1 6.1-2.9 6.1-6.4zm5.7-1.6c0-4.3 2.7-7.2 6.9-7.2.7 0 1.2.5 1.2 1.2s-.6 1.2-1.2 1.2c-2.5 0-4.2 1.6-4.2 4.7v9c0 .7-.6 1.4-1.3 1.4s-1.3-.6-1.3-1.3v-.1zm23.6 7.7c-1.6 1.7-3.9 2.7-6.2 2.7-4.9 0-8.6-3.9-8.6-8.8s3.7-8.8 8.6-8.8c2.4 0 4.6 1 6.2 2.7v-1.3c0-.7.6-1.3 1.3-1.3s1.3.6 1.3 1.3v14.8c0 .7-.5 1.3-1.3 1.4h-.1c-.7 0-1.3-.6-1.3-1.4v-1.3zm0-5.8v-.5c-.1-3.5-2.8-6.1-6.1-6.1-3.4 0-6.1 2.8-6.1 6.4s2.7 6.4 6.1 6.4c3.4-.2 6-2.8 6.1-6.2zm7.1-14.1c0-.7.6-1.3 1.3-1.3s1.3.6 1.3 1.3v21.2c0 .7-.6 1.3-1.3 1.4-.7 0-1.3-.6-1.3-1.3zm-84.1 16c-.6-.2-1.2 0-1.5.6-2.2 5.3-7.2 8.9-13 9.3v-2.7c.1-.1.1-.3.2-.4.7-1.3 2-2 3.6-2.9 1.8-1 3.7-2.1 4.9-4.2.3-.6.1-1.2-.5-1.5-.5-.3-1.2-.1-1.5.4-.9 1.6-2.4 2.4-4.1 3.3-.9.5-1.9 1-2.7 1.7v-1.6c0-2.3 1.6-3.7 3.5-5.4 2.4-2.1 5.1-4.4 5.1-9.1 0-.6-.5-1.1-1.1-1.1s-1.1.5-1.1 1.1c0 2.3-.9 3.9-2 5.2-1.2-1.6-2-3.7-2-5.2 0-.6-.5-1.1-1.1-1.1s-1.1.5-1.1 1.1c0 2.1 1 4.8 2.6 6.8l-.6.5c-1.2 1-2.3 2-3.2 3.3-.8-1.3-2-2.3-3.2-3.3l-.6-.5c1.6-2 2.6-4.7 2.6-6.8 0-.6-.5-1.1-1.1-1.1s-1.1.5-1.1 1.1c0 1.5-.8 3.6-2 5.2-1.2-1.3-2-2.9-2-5.2 0-.6-.5-1.1-1.1-1.1s-1.1.5-1.1 1.1c0 4.7 2.7 7 5.1 9.1 2 1.7 3.5 3 3.5 5.4v1.6c-.8-.7-1.8-1.2-2.7-1.7-1.6-.9-3.2-1.7-4.1-3.3-.3-.5-1-.7-1.6-.4-.5.3-.7 1-.4 1.5 1.2 2.2 3.2 3.2 4.9 4.2 1.5.8 2.9 1.6 3.6 2.9.1.1.1.3.2.4v2.7c-8.5-.6-14.8-8-14.2-16.4.3-3.7 1.8-7.1 4.4-9.7 6-6 15.7-6 21.7 0 1.4 1.4 2.5 3 3.3 4.9.2.6.9.8 1.5.6s.8-.9.6-1.5c-3.8-9-14.1-13.2-23.1-9.4-4.2 1.8-7.6 5.1-9.4 9.4-3.8 9 .4 19.3 9.4 23.1 6.6 2.8 14.2 1.3 19.3-3.8 1.6-1.6 2.9-3.5 3.8-5.6.3-.6 0-1.3-.6-1.5z" fill="#1d1d1b"/></svg>