<svg viewBox="0 0 137 25" xmlns="http://www.w3.org/2000/svg"><path clip-rule="evenodd" d="M9.2.5H0v23.8h9c8.6 0 13.6-5.1 13.6-12v-.1C22.6 5.4 17.7.5 9.2.5zm6.7 11.9c0 3.8-2.6 6-6.6 6H6.6V6.3h2.7c3.9 0 6.6 2.2 6.6 6.1zM27 24.3h6.6V.5H27zM48.9 9.5c-3.3-.7-4.1-1.2-4.1-2.3v-.1c0-.9.8-1.5 2.4-1.5 2.1 0 4.5.8 6.7 2.3l3.3-4.7C54.6 1.1 51.5 0 47.4 0c-5.7 0-9.2 3.2-9.2 7.6v.1c0 4.9 3.9 6.3 9 7.5 3.2.7 4 1.3 4 2.3v.1c0 1-1 1.6-2.7 1.6-2.8 0-5.4-1-7.7-2.9L37 20.7c2.9 2.6 6.9 3.9 11.2 3.9 5.8 0 9.6-2.9 9.6-7.8v-.1c0-4.3-3.4-6.1-8.9-7.2zm37.8 2.9C86.7 5.5 81.3 0 73.9 0 66.6 0 61 5.5 61 12.4v.1c0 6.8 5.4 12.3 12.8 12.3 2.7 0 5.2-.8 7.2-2.1l2.6 2.3 3.3-3.7-2.4-2.1c1.5-1.9 2.2-4.3 2.2-6.8zm-6.7.1c0 .8-.1 1.6-.4 2.3l-3.2-2.9-3.4 3.7 3.3 2.8c-.7.3-1.5.4-2.4.4-3.6 0-6.1-3-6.1-6.5v-.1c0-3.4 2.4-6.4 6-6.4C77.5 6 80 9 80 12.5zm26.2 1.4c0 3.3-1.7 4.9-4.4 4.9s-4.4-1.6-4.4-5.1V.5h-6.7v13.4c0 7.4 4.3 10.9 11 10.9 6.8 0 11.2-3.4 11.2-11.1V.5h-6.7zm21.5-4.4c-3.3-.7-4.1-1.2-4.1-2.3v-.1c0-.9.8-1.5 2.4-1.5 2.1 0 4.5.8 6.7 2.3l3.3-4.7c-2.6-2.1-5.7-3.2-9.8-3.2-5.7 0-9.2 3.2-9.2 7.6v.1c0 4.9 3.9 6.3 9 7.5 3.2.7 4 1.3 4 2.3v.1c0 1-1 1.6-2.7 1.6-2.8 0-5.4-1-7.7-2.9l-3.7 4.4c2.9 2.6 6.9 3.9 11.2 3.9 5.8 0 9.6-2.9 9.6-7.8v-.1c-.1-4.3-3.5-6.1-9-7.2z" fill="#141414" fill-rule="evenodd"/></svg>