<svg viewBox="0 0 372 84" xmlns="http://www.w3.org/2000/svg"><g fill="#211e1e"><path d="M273.064 10.13h36v-7.5zm88 29.4h7.2v-25.6h-5.8l-3.3 5.1c-5-3.6-11.4-7.1-19.1-7.1-12.1 0-24.9 6.1-24.9 20.4 0 29 44.8 15.9 44.8 33.3 0 4.9-4.2 9-13 9-14.2 0-22.5-7.3-23.9-20.9h-7.4v27.5h6.8l2.2-6c5.8 4.8 13.3 8 20.9 8 14.1 0 26.5-5.3 26.5-21.4 0-28.3-44.8-17-44.8-32.2 0-6.7 3.8-9.1 13.1-9.1 12 .1 18.3 8 20.7 19m-82.1 41.8h29.9v-7.5h-5.8c-3.4 0-4.9-1.7-4.9-5v-42.4c0-3.9 3.1-4.9 6.3-4.9h4.4v-7.5h-35.5v7.5h5.6c3.9 0 5.1 2 5.1 4.6v44.1c0 2.6-1.6 3.6-5.5 3.6-5.1 0-8.4-.8-10.2-5.5l-20.1-54.3h-14.1l-19.2 54.3c-1.7 4.8-5.2 5.5-10.5 5.5v7.5h31.3v-7.5h-7.8c-1.9 0-3.2-.4-3.2-1.8 0-.9.2-1.5.4-2.1l3.3-10.2h22.8l3.3 10.2c.2.6.4 1.5.4 2.4 0 1-.8 1.5-3.1 1.5h-7.9v7.5zm-30.5-29.2h-17l8-24.5h.2zm-31.2-19.7c0-11.5-8.6-18.5-23.7-18.5h-39.3v7.5h6.4c2.3 0 4.3.8 4.3 3.5v45.4c0 2.6-2 3.5-4.3 3.5h-6.4v7.5h36v-7.5h-6.4c-2.3 0-4.8-.8-4.8-3.5v-19.5h15.8c13.4 0 22.4-5.9 22.4-18.4m-14.7.1c0 7.8-5 10.8-14.5 10.8h-9.1v-21.8h9.1c10.5 0 14.5 3.2 14.5 11m-131 48.8h62.7v-28.9h-7.4c-.9 15.7-3.4 21.5-13.7 21.5h-16.4v-47.8c0-3.6 1.5-4.6 5.9-4.6h5.6v-7.5h-36.7v7.5h5.8c4 0 5.3 1.3 5.3 4.4v43.5c0 3.5-1.9 4.5-4.7 4.5h-6.4zm-69.6 0h66.2v-28.4h-7.4c-.9 15.1-4.5 20.9-13.7 20.9h-20.1v-23.7h5.3c6 0 8.7 3.1 8.7 11.4v2.4h7.4v-33.9h-7.4v1.3c0 8.2-2.7 11.3-8.7 11.3h-5.3v-21.1h17.7c13.4 0 14.7 5.5 16.2 19.3h7.4v-26.8h-66.2v7.5h4.5c5.2 0 6.4 1.3 6.4 5.7v39.5c0 6.1-1.9 7.1-5.3 7.1h-5.6v7.5"/></g></svg>