<svg viewBox="0 0 985.2 346.9" xmlns="http://www.w3.org/2000/svg"><g fill="#1d1d1b"><path d="m3.7 1.7v342.8h342.8v-342.8zm158.7 94.3h-6.5c-3.4-33.5-10-39.2-39.9-39.2h-23.7v63.9h18.7c20.3 0 21.4-3.4 22.9-19.3h5.9v46.6h-5.9c-1.6-16-2.5-19.1-22.9-19.1h-18.7v55.4c0 11.4 3.1 13.9 23.9 13.9v6.9h-73.3v-6.9c15.2 0 20.6-.7 20.6-13.2v-115.7c0-12.3-5.4-13.2-20.6-13.2v-6.9h97.6c13.2 0 17.8-.5 21.9-1.3zm155 0h-6.4c-3.4-33.5-10-39.2-39.9-39.2h-8.2v127.4c0 12.1 4.6 13.9 23.9 13.9v6.9h-76.9v-6.9c19.3 0 24.2-1.8 24.2-13.9v-127.3h-8.2c-29.9 0-36.5 5.7-39.9 39.2h-6.4v-48.1c4.1.7 8.7 1.3 21.9 1.3h94.1v-.1c13.2 0 17.8-.5 21.9-1.3v48.1z"/><path clip-rule="evenodd" d="m416.2 143.1c0 5.3 1.5 6.6 11.3 6.6v3.4h-34v-3.4c6.7 0 9-.6 9-6.4v-54.5c0-5.8-2.3-6.4-9-6.4v-3.4h57.1l.3 20.3h-2.7c-1.5-15.3-5.3-16.6-19.5-16.6h-12.7v30.2h10.1c9.6 0 10.2-1.5 11-9.2h2.7v22.1h-2.7c-.8-7.6-1.4-9-11-9h-10.1v26.3zm41.6 10v-3.4c6.7 0 9-.6 9-6.4v-54.5c0-5.8-2.3-6.4-9-6.4v-3.4h31.7v3.4c-6.7 0-9 .6-9 6.4v54.5c0 5.8 2.3 6.4 9 6.4v3.4zm103.8 1.2-50.6-62.7v51.4c0 6 4.1 6.9 11.1 6.9v3.4h-26.9v-3.4c7 0 10.8-.9 10.8-6.9v-57.1c-3.2-3.4-5.5-3.5-10.8-3.5v-3.4h23.8l38.8 49.9v-39.8c0-6-4.1-6.9-11.1-6.9v-3.2h27v3.4c-7 0-10.8.9-10.8 6.9v65zm36.2-1.2h-26.7v-3.4c7 0 10.2-.9 12.5-7l24.1-64.4h6.7l25.9 64.9c2.3 5.8 3.4 6.4 8.7 6.4v3.4h-31v-3.4c9.5 0 10.4-.8 8.1-6.4l-7.6-19.7h-23.2l-6.9 19.1c-2.1 5.8 1.2 7 9.5 7v3.5zm-1.1-33.5h20.1l-10.5-26.6zm122 34.7-50.5-62.7v51.4c0 6 4.1 6.9 11.1 6.9v3.4h-26.3v-3.4c6.4 0 10.2-.9 10.2-6.9v-56.9c-3.7-3.4-6.4-3.7-12.5-3.7v-3.4h25.3l38.8 49.9v-39.8c0-6-4.1-6.9-11.1-6.9v-3.2h26.9v3.4c-7 0-10.8.9-10.8 6.9v65zm74.9-75.4h1.8l1.1 22.1-2.7.2c-1.8-12.7-8.5-19.4-20.9-19.4-13.7 0-24.1 11.8-24.1 29.8 0 23 14.5 36.2 29.8 36.2 6.6 0 12.5-1.8 18.3-8.1l2.1 2.1c-4.7 6.7-14 12.4-26.6 12.4-18.6 0-37.5-14-37.5-37.5 0-22.7 17.2-38.8 38.2-38.8 9.9 0 15.1 4.3 17.9 4.3 1.1-.1 2-1.2 2.6-3.3zm11.5 74.2v-3.4c6.7 0 9-.6 9-6.4v-54.5c0-5.8-2.3-6.4-9-6.4v-3.4h31.7v3.4c-6.7 0-9 .6-9 6.4v54.5c0 5.8 2.3 6.4 9 6.4v3.4zm61.6 0h-24.9v-3.4c5.5 0 8.4-.9 10.7-7l24.1-64.4h6.7l25.9 64.9c2.3 5.8 3.4 6.4 8.7 6.4v3.4h-31v-3.4c9.5 0 10.4-.8 8.1-6.4l-7.6-19.7h-23.2l-6.9 19.1c-2.1 5.8 1.2 7 9.5 7v3.5zm-1.1-33.5h20.1l-10.4-26.6zm57.6 33.5v-3.4c6.7 0 9-.6 9-6.4v-54.5c0-5.8-2.3-6.4-9-6.4v-3.4h31.6v3.4c-6.7 0-8.9.6-8.9 6.4v54.9c0 4.9 2.4 5.5 6.4 5.5h3.8c14.3 0 18.9-2.1 22.9-18.5l2.7.3-2.3 21.8h-56.3zm-462.1 51.8.3 21.5h-2.7c-1.5-15.9-5.3-17.9-19.5-17.9h-4.6v60.5c0 5.8 2.1 6.6 11.3 6.6v3.4h-36.3v-3.4c9.2 0 11.4-.9 11.4-6.6v-60.4h-4.6c-14.2 0-18 2-19.5 17.9h-2.7l.3-21.5h66.6zm7.2 74v-3.4c6.7 0 9-.6 9-6.4v-54.5c0-5.8-2.3-6.4-9-6.4v-3.4h31.7v3.4c-6.7 0-9 .6-9 6.4v54.5c0 5.8 2.3 6.4 9 6.4v3.4zm127.3-74v3.4c-6.7 0-9.6.3-9 6.3l5.8 54.9c.6 5.6 2.7 6.3 9.5 6.3v3.4h-31.6v-3.4c6.6 0 8.9-.6 8.4-6.3l-6-57.7-23.4 68.5h-.9l-22.9-68.7-5.5 57.7c-.6 5.8 3.4 6.4 10.1 6.4v3.4h-24.7v-3.4c6.7 0 9-1.1 9.5-6.4l5.8-54.9c.6-5.8-2.3-6.3-9-6.3v-3.2h25.9l15.6 50.5 16.8-50.5zm59.1 46.8h-2.7c-.8-7.6-1.4-9-11-9h-11.3v26.9c0 4.9 2.4 5.5 6.4 5.5h6.1c14.3 0 18.9-2.1 22.9-18.5l2.7.3-2.6 21.8h-58.3v-3.4c6.7 0 9-.6 9-6.4v-54.3c0-5.8-2.3-6.4-9-6.4v-3.4h56l.3 18.5h-2.7c-1.7-13.1-5-14.7-19.7-14.7h-11v30.1h11.3c9.6 0 10.2-1.5 11-9.2h2.7v22.1zm58.9 11.9c0-6.7-4.3-10.1-11.6-14.2l-11.8-6.1c-8.9-4.7-14-9.9-14-19.2 0-11.6 9.9-20.5 22.9-20.5 8.9 0 13.4 4.3 16 4.3 1.7 0 2.4-1.1 3.2-3.2h2.1l1.1 20.8-2.7.2c-1.5-10.1-8.7-17.9-18.8-17.9-7.6 0-12.7 4.6-12.7 11 0 7 5.3 9.9 11.3 13.1l10.1 5.3c9.5 5.2 16.2 10.4 16.2 20.3 0 13.1-11.3 22.4-25.3 22.4-9.9 0-14.8-4.7-17.4-4.7-1.7 0-2.6 1.5-3.4 3.8h-2.1l-1.5-22 2.7-.3c2.1 13.7 11.6 19.4 21.1 19.4 7.9-.1 14.6-3.6 14.6-12.5z" fill-rule="evenodd"/></g></svg>