<svg width="112" height="19" viewBox="0 0 112 19" fill="none" xmlns="http://www.w3.org/2000/svg">
<path d="M42.9646 8.69593V11.2244H49.0641C48.9803 11.8817 48.8087 12.4886 48.5494 13.0452C48.29 13.6018 47.9766 14.0658 47.6078 14.436C47.039 14.9762 46.3946 15.4049 45.6746 15.7261C44.9545 16.0459 44.0602 16.2065 42.9889 16.2065C41.8176 16.2065 40.7301 15.9288 39.7264 15.3723C38.7226 14.8157 37.9188 14.0237 37.3163 12.9962C36.7138 11.9688 36.4125 10.7889 36.4125 9.45665C36.4125 8.12437 36.7138 6.94588 37.3163 5.91708C37.9188 4.88964 38.7213 4.09626 39.7264 3.54103C40.7301 2.98445 41.8095 2.70683 42.9646 2.70683C43.9521 2.70683 44.8505 2.88374 45.6624 3.23756C46.4743 3.59138 47.1728 4.09762 47.7577 4.75491L49.7152 2.78304C48.929 1.90665 47.9495 1.22487 46.7783 0.734963C45.607 0.246418 44.3439 0.00146484 42.9889 0.00146484C41.2827 0.00146484 39.7088 0.415163 38.2701 1.23984C36.8313 2.06587 35.6884 3.19946 34.8441 4.6406C33.9984 6.08174 33.5769 7.68754 33.5769 9.45665C33.5769 11.2257 33.9997 12.8316 34.8441 14.2727C35.6884 15.7138 36.8313 16.8474 38.2701 17.6735C39.7088 18.4995 41.2813 18.9118 42.9889 18.9118C45.7327 18.9118 47.9495 18.0109 49.6396 16.2065C50.4096 15.4308 50.9702 14.5163 51.3215 13.463C51.6727 12.4097 51.8484 11.3101 51.8484 10.1629C51.8484 9.65669 51.8065 9.16814 51.7227 8.69593H42.9632H42.9646Z" fill="#F2F2ED"/>
<path d="M62.6517 7.98818L61.4588 7.60851C60.3281 7.23836 59.4973 6.85051 58.9677 6.44498C58.4381 6.04081 58.172 5.52641 58.172 4.90314C58.172 4.24585 58.4679 3.70695 59.0596 3.28509C59.6513 2.86459 60.3808 2.65366 61.2467 2.65366C62.1127 2.65366 62.8192 2.87275 63.3677 3.31095C63.9148 3.74914 64.2863 4.25538 64.4809 4.82829L67.1584 3.74097C66.8221 2.78021 66.1601 1.91608 65.1712 1.14992C64.181 0.383759 62.8557 0 61.1954 0C60.0471 0 59.0177 0.223179 58.1072 0.669538C57.1966 1.1159 56.486 1.71875 55.974 2.47675C55.462 3.23474 55.2053 4.06077 55.2053 4.95485C55.2053 6.2531 55.6376 7.29823 56.5036 8.09025C57.3695 8.88226 58.4381 9.4892 59.7107 9.91106L60.9036 10.3152C62.3342 10.8038 63.338 11.2882 63.9121 11.7686C64.4863 12.249 64.774 12.86 64.774 13.6017C64.774 14.4114 64.4471 15.0469 63.7933 15.511C63.1394 15.975 62.3437 16.2064 61.4075 16.2064C60.3997 16.2064 59.5391 15.8906 58.8232 15.2578C58.1072 14.6264 57.6087 13.8126 57.3263 12.8178L54.5164 13.9052C54.9932 15.4892 55.8592 16.7208 57.1142 17.5958C58.3692 18.4722 59.7823 18.9104 61.3548 18.9104C62.3977 18.9104 63.4082 18.7158 64.389 18.3293C65.3698 17.9428 66.1777 17.3481 66.814 16.5466C67.4502 15.7464 67.7677 14.7557 67.7677 13.5758C67.7677 12.1265 67.3219 10.9671 66.4289 10.0989C65.536 9.23064 64.2769 8.52708 62.6517 7.98818Z" fill="#F2F2ED"/>
<path d="M76.2076 0.402832L69.4556 18.5048H72.5681L74.2001 13.878H81.4533L83.0595 18.5048H86.1721L79.4201 0.402832H76.2076ZM75.1282 11.2488L77.0357 5.86392L77.7382 3.76549H77.8881L78.5906 5.86392L80.4981 11.2488H75.1268H75.1282Z" fill="#F2F2ED"/>
<path d="M108.862 0.402832L104.017 13.6003H103.867L100.052 0.402832H97.241L93.2503 13.6262H93.099L88.2559 0.402832H85.1177L91.6697 18.5062H94.581L98.5717 5.09096H98.7216L102.511 18.5062H105.498L112 0.402832H108.862Z" fill="#F2F2ED"/>
<path d="M5.41186 2.89325H11.5992V11.3754C11.5992 12.8764 11.1979 14.142 10.4374 15.0307C9.84294 15.7274 9.00671 16.1615 7.9881 16.3139C6.98706 16.4296 6.31429 16.3167 6.31429 16.3167C5.32405 16.1765 4.54186 15.775 3.9515 15.115H3.95015L3.80695 14.9477C3.10176 14.0672 2.7289 12.8315 2.7289 11.3754V11.125H0V11.3768C0 12.8601 0.301259 14.1937 0.894322 15.3396C1.48738 16.4854 2.33983 17.3958 3.43003 18.0409C4.3176 18.5648 5.24975 18.8642 6.31294 18.9649C6.31294 18.9649 6.88439 19.0438 7.98675 18.9649C9.08642 18.8628 10.1037 18.5607 10.9615 18.0545C12.0409 17.4176 12.8758 16.5072 13.4472 15.3477C14.0119 14.1992 14.2997 12.8601 14.2997 11.3754V0.370239H5.41186V2.89325Z" fill="#F2F2ED"/>
<path d="M18.9375 2.8946H23.3159V15.9832H18.9375V18.5063H23.3159H26.1272H30.5042V15.9832H26.1272V2.8946H30.5042V0.371582H18.9375V2.8946Z" fill="#F2F2ED"/>
</svg>
