<svg viewBox="0 0 371.3 83.5" xmlns="http://www.w3.org/2000/svg"><g transform="matrix(1.00677 0 0 1.00677 -2.55 -1.538)"><path d="m145.3 81c-.1-5.2-.1-9.9-.1-15.5 0-5.3.1-11.3 0-16.3-.1-4.4-.1-9.1-.1-14.7 0-2.6.1-5.2 0-7.8s.2-5.3-.3-7.7c-.1-.6-.9-1.2-1.4-1.6-1-.9-1.9-1.6-3-2.6-.4-.3-1.3-1.2-1.6-1.2s-.9.5-1.3.8c-.9.5-1.5.9-2.6 1.5-.3.2-1.2.5-1.3.8-.2.4 0 1.8 0 2.6v7.9c0 3.4.1 5.5.1 8.9v10c0 3.4 0 6.7-1.2 9.1-.4.7-1 1.7-1.5 2.3-.6.7-1.4 1.1-2.1 1.7s-1.5 1-2.3 1.5-1.5 1-2.2 1.5c-1 .6-2 1.1-3 1.9-.6.5-1.4.9-2.3 1.4-.5.3-.7.7-1.1.1-.2-.2-.8-1.1-.7-1.3 0-.4.7-.9.9-1.1.4-.4.7-.7 1-1.1l.6-1.2c.2-.4.4-.7.6-1.1.9-2.4.8-6.3.8-10 0-5.3 0-11.4-.1-15.5v-10.7c0-1.9.1-3.9-.4-5-.3-.7-1.2-1.5-2.1-1.7-1.1-.2-2.5.1-3.5.3-3 .5-7.5 1.8-10.3.4-1.2-.6-2.5-2-2.7-3.6-.2-1.7.7-3.8 1.4-5.2 1-1.8 2.5-3.4 3.8-5 .4-.5.7-1.1 1.3-1.6.3-.3.9.4 1.4.7.3.2 1 .6 1 .8s-1.2 1.9-1.4 2.2-.5.7-.7 1.1c-.4.8-.8 2 .1 2.8.3.3 1.4.4 2.3.3 1.1-.2 2-.8 3-1.2s2.1-.7 3.1-1.1c2.8-1 5.3-2.4 9.3-2 1.6.2 3.1.9 4 1.8.4.4.8.7 1.1 1 .2.3.4.8.7 1.3s.6.9.8 1.4c.1.4.3 1.6.5 1.7s1.1-.5 1.6-.8c.7-.4 1.2-.7 1.5-.9 1-.7 2.3-1.2 3.1-1.8 1.4-1 2.9-1.9 4.6-2.8.4-.2 1.2-.9 1.5-.9s1 .6 1.4.9c.5.4.9.8 1.3 1.1.5.4 1 .6 1.4.9.5.4.9.8 1.3 1.1.5.4.9.7 1.4 1 .4.3.8.8 1.3 1.1.4.3.9.5 1.4.9s1 1 1.3 1.1c.3 0 1.2-.8 1.7-1.1.6-.4 1.1-.7 1.7-1 1.1-.7 2.2-1.4 3.2-2.1.6-.3 1-.8 1.6-1.1.5-.3 1.1-.6 1.7-.9.4-.3 1-.8 1.5-1.1s1.3-.9 1.7-.9 2 1 2.4 1.2c.8.5 1.5 1 2.2 1.3.8.4 1.5 1 2.2 1.4.8.5 1.6.8 2.3 1.2 1.7 1.1 3 1.9 5.4 1.6 1.5-.2 2.6-.9 3.8-1.6.3-.2.9-.6 1.2-.6.4.1.9 1.6 1.2 1.9.2.2.4.3.4.6-.1.5-2.3 1.5-2.8 1.8-2.6 1.7-4.9 3.3-6 6.5-.6 1.8-.7 4.2-.7 6.5-.2 7.2.1 16.2.1 21.9 0 4.3.1 8.6.1 14.4 0 2.4-.2 5.8.7 7.1.2.3.7.5 1.1.8.4.2.8.7 1.1.7.4 0 1.6-.9 1.9-1.1.2-.1 1.7-1.1 2-1 .2.1.5 1 .6 1.2.2.4.6 1 .5 1.3-.1.4-1.1.8-1.6 1.1-.6.4-1.2.8-1.6 1.1-3 1.9-5.3 3.1-8.2 5-.5.3-1.3.9-1.7.9-.5 0-1.3-.9-1.8-1.2-1.7-1.2-3.9-2.3-4.8-4.2-.9-2-.8-5.7-.8-8.7.1-8.5-.1-19.1 0-26.8 0-2.1-.1-4.6 0-6.8.1-4.5 1.4-8.1 3.8-10.4.5-.5 1.2-1 1.9-1.5.2-.1.7-.4.7-.5 0-.2-1.3-.8-1.5-.9-.6-.4-1.1-.7-1.5-.9-1-.7-2.1-1.2-3.1-1.8-1.4-.9-2.9-1.9-4.5-2.8-.4-.2-1.3-.9-1.5-.9-.3 0-1 .6-1.4.8-1 .6-1.6 1-2.7 1.7-.4.2-1.2.6-1.3.9-.2.6 0 3.2 0 4 0 7.5.1 11.7.1 18.8v14.9c0 4.6.1 8.5.1 14.1 0 2.8 0 5.3-1.4 6.6-.6.6-1.7 1.1-2.6 1.6-1.8 1.1-3.7 1.8-5.6 2.8-1.2.6-2.2 1.4-3.4 1.3zm180.8-13.8c1.1-.4 1.7-.8 2.8-1.3.2-.1.7-.5.9-.4s.4 1 .5 1.2c.2.4.5 1 .5 1.2-.1.3-.9.7-1.3.9-1.4.8-2.8 1.7-4.1 2.5-1.9 1.1-3.7 2.1-5.5 3.2-.9.6-1.8 1.2-2.7 1.6-2.3 1.3-4.4 2.6-6.8 4.1-.4.3-1.1.7-1.4.7-.5 0-1.3-.7-1.8-1-2.8-1.8-5.6-3.7-8.4-5.5-1.7-1.1-3.8-1.8-4.3-4-.2-1.1-.2-2.3-.1-3.5.2-4.7-.1-12-.1-18.1 0-1.9 0-3.7-.1-5.5 0-.6.1-1.4 0-1.5-.2-.1-.9.3-1.1.5-1.1.6-1.9 1.3-3.1 1.6-.1-.6 0-1.1 0-1.6 0-.4-.2-1 0-1.4.1-.3 1.1-.8 1.7-1.1.7-.4 1.4-.8 1.8-1.1.6-.3 1.2-.6 1.8-1s1.1-.9 1.7-1.2 1.2-.5 1.7-.8 1-.9 1.4-1.1c.5-.3 1.2-.4 1.8-.8.5-.3 1-.8 1.6-1.1.5-.3 1.1-.6 1.7-.9 2.8-1.6 5.4-3.3 8.3-5 .5-.3 1.5-.7 1.7-1 .2-.5 0-1.8-.1-2.5-.1-1.9-.6-3.4-1.4-4.6-.6-1.1-1.8-2.4-2.9-3.2-.9-.7-1.7-1.1-2.8-1.8-.4-.3-1.1-.9-1.5-.9-.3 0-.8.4-1.2.6-.9.5-1.5.8-2.3 1.3-.4.2-.9.6-1.2.6-.5 0-1.1-.4-1.5-.6-.5-.3-.9-.4-1.4-.8 1.6-1.3 3.6-2.2 5.4-3.3.6-.4 1.2-.7 1.8-1.1.6-.3 1.2-.8 1.8-1.1.6-.4 1.3-.6 1.9-1s1.1-.8 1.7-1.2 1.3-.7 1.9-1c.5-.3 1 .3 1.6.6l3.9 2.4c1.2.8 2.4 1.8 3.4 2.9.3.4.7.7 1 1.1.5.7 1 1.6 1.4 2.4.4.9.8 1.8 1 2.8.5 2 .5 4.4.5 7 0 5.6.1 9.4.1 14.4-.3 10-.3 20.4-.2 28.4zm-11.9-36.1c-1 .7-2.1 1.1-3.1 1.8-.5.4-1 .7-1.5 1s-1.1.5-1.7.8c-.4.3-.7.7-1.3 1.1-.4.3-1.3.5-1.4.9-.1.3 0 1.2 0 1.9 0 4.9-.1 7.9 0 11.2.1 2.3.1 4.6.1 6.8 0 2.3-.2 4.9 0 7.5.2 2.2 1.2 2.8 2.6 3.9.8.6 1.6.9 2.4 1.5.6.4 1.3 1 2.3 1.6.4.2 2 1.6 2.4 1.3.2-.2.1-1.9.1-2.7 0-2.9-.1-6.2 0-8.3.1-4 0-6.6 0-10.3 0-3.4 0-5.2-.1-8.9v-9.7c0-.8-.1-1.5-.8-1.4 0-.1 0 0 0 0zm-268.8-7.7c.1-.9-.1-1.3-.1-1.9 0-.3-.1-.9.1-1.2.2-.4 1.4-1.2 1.8-1.5.9-.7 2-1 2.2-2.2.2-1.4-1-3.3-1.6-4-1.4-1.8-3.1-3.1-5.8-3.6-2.1-.4-4.9.7-6.1 1.9-.2.2-.3.5-.6.8-.2.3-.5.5-.7.7-.2.3-.3.7-.5 1.1-2.4 5.1-1.4 12.8-.4 19.1.4 2.7 1 5.7 1.5 8.6.2 1.4.5 2.9.6 4.4.2 3.5.2 6.9-1.1 9.6-.2.4-.6.9-.9 1.3-.8 1.2-1.7 2.3-2.8 3.2-.6.5-1.2.7-1.7 1.1s-.9.8-1.4 1.2c-.7.5-1.6.9-2.4 1.6-.3.3-.7.5-1.1.9-.3.2-.8.8-1.2.8-.3 0-1.2-1.2-1.3-1.5 0-.4.8-1.2.9-1.6 1-2.2 1.1-4.9 1-7.8 0-.3.1-.7.1-1.1-.1-2-.4-4-.7-6-.6-3.7-1.3-7.5-2-11.4-.2-.9-.2-1.9-.3-2.8-.1-1-.3-1.9-.4-2.8-.4-5.7.8-9.6 2.7-13.3 1.3-2.5 3.4-4.8 5.6-6.5.4-.3.8-.5 1.2-.8s.7-.6 1.1-.9c.6-.4 1.2-.6 1.9-.9 1.7-.8 3.9-1.8 6.2-2.1s4.6-.3 7.1 0c1.2.1 2.4.2 3.4.5 1.3.4 2.7 1.2 3.9 1.8.6.3 1.2.7 1.7 1.1.6.5 1.2.8 1.7 1.2.5.5 1 1.1 1.6 1.8.2.2.5.5.7.9.2.3.6.9.6 1 0 .3-1.3 1-1.7 1.3-.7.5-1.3.8-1.9 1.1-.6.4-1.2.9-1.8 1.2-1.8 1.1-3.7 2.2-5.5 3.5-1.2.8-2.3 1.6-3.6 2.2zm-23.9-7c0 .6-.5.7-.9.9.2-.4.3-.8.9-.9z"/><path d="m104.9 19.9c.2-.4 1.3-.8 1.3-.4 0 .3-.9.6-1.3.4zm230 22.8c.2-.7-.3-2.3 0-3 .1-.2 1.2-.8 1.6-1 .6-.4 1.2-.7 1.6-.9 1.1-.7 2.3-1.3 3.2-1.9.5-.3 1-.8 1.5-1.1.6-.4 1.3-.5 1.8-.9.5-.3 1-.8 1.5-1.1.9-.5 1.8-.9 2.6-1.5 2.5-1.5 5.1-3 7.6-4.6.4-.2.7.4 1.1.8l3.9 4.5c.6.6 1 1.2 1.5 1.8.3.4.7.6 1 .9s.5.9.8 1.2.8.6 1.1.9c.2.3.5.8.7 1.1.3.4.7.7 1.1 1.1.6.7 1.3 1.5 2 2.3.1.1 1 1.1 1 1.2 0 .2-1 .7-1.2.9-1.2.9-2.7 1.7-3.8 2.4-.8.6-1.7 1-2.6 1.6-3.7 2.5-7.6 4.7-11.4 7.3-.4.3-1.1.6-1.2.8-.2.5 0 1.8 0 2.3v2.6c0 2.1-.2 3.8 0 5.4.2 1.3 1.5 2.1 2.4 2.7 1.7 1.2 3.4 2.3 5.2 3.6.3.2.8.7 1 .7.3 0 .8-.4 1.1-.6 1.8-1 3.4-1.8 5.3-2.9.3-.1.6-.4 1-.6.3-.1 1-.6 1.1-.5.3.1.6.9.7 1.4.2.5.7 1.2.6 1.5s-1.7 1.1-2 1.3c-4.1 2.5-8 4.8-12.2 7.3-.4.2-1.6 1.2-2.1 1.2-.4 0-1.2-.7-1.7-.9-1.6-1.1-3.1-2.1-4.6-3.2-1-.7-2.1-1.3-3.1-2.1-1.8-1.4-3.7-1.8-3.9-4.8-.1-1.6 0-3.1 0-4.5-.1-4.6-.1-8.2-.1-14v-8.4c0-.7.2-2.6-.1-2.8-.2-.2-1.9 1.1-2.1 1.2-.5.7-1 1-1.9 1.3zm20.4 5c1-.7 2.3-1.3 3.4-2.1.3-.2 1-.7 1-.9 0-.1-.3-.4-.5-.6-.6-.6-1.1-1.4-1.5-1.9-1.8-2-3.4-4.2-5.2-6.2-.4-.4-.6-1-1-1.3-.1-.1-.7.3-.8.6-.2.5 0 1.4 0 2 0 5.1 0 8.5.1 13.3 1.5-.9 2.9-1.8 4.5-2.9zm-157.3-7.2c-1.2.6-2.1 1.1-3.4 1.8-.3.1-1 .6-1.1.5-.2-.2 0-1.1.1-1.7 0-.3-.1-1 0-1.3.1-.2 1.2-.7 1.7-1 1.1-.7 2.1-1.3 3.2-2 .6-.4 1.2-.6 1.7-.9s1-.9 1.5-1.2 1.1-.5 1.7-.8c.5-.3.9-.7 1.4-1s1-.5 1.5-.8c1-.5 2-1.2 3-1.8 2-1.2 4-2.4 6-3.5.4-.2 1.4.5 2 .8s1.2.7 1.7 1c1.8 1.1 3.3 2.1 5 3.1 1.1.6 2.2 1.4 3.3 2.1.6.4 1.3.6 1.8 1 1.2.8 1.9 1.9 2.1 3.8.2 2.5 0 4.9 0 7.3 0 6.8.1 11.7.1 19.5 0 .6 0 1.7.1 1.8.2.1 1.5-.6 1.8-.8.3-.1 1.2-1 1.7-.9.2.1 1.2 2 1.1 2.3 0 .2-1.1.8-1.3.9-2.5 1.4-4.5 2.7-6.8 4.1-.9.6-1.9 1-2.8 1.6-3.3 2.1-6.2 3.7-9.6 5.7-.5.3-1.1.8-1.4.8-.5 0-1.4-.7-1.9-1.1-1.8-1.2-3.8-2.2-5.4-3.2-1.2-.7-2.4-1.5-3.6-2.2-1.8-1.1-4-1.8-4.6-4.2-.4-1.6-.1-3.6-.2-5.1-.1-5.4 0-12.4 0-18.2-.4-2.2-.4-4-.4-6.4zm11.4-5c-.4.2-.3 1.3-.3 1.6 0 1.8 0 3.8.1 5.2v16.5c0 2.5-.3 6.1.6 7.5.4.7 1.6 1.1 2.3 1.6 2.1 1.4 4.2 2.5 6.3 3.8.1.1 1 .9 1.4.5.2-.2.1-1.3.1-1.9v-6c0-7.5-.1-11.1-.1-18.5 0-1.2.2-2.6-.2-3.6-.3-.7-1.4-1.7-2.1-2.1-1-.6-1.8-1-2.7-1.5-1.5-.8-2.5-1.6-3.9-2.3-.4-.2-1.1-.8-1.5-.8zm-159.2 7.3c0-.6-.1-1-.1-1.5 0-.3-.1-1.1.1-1.5.1-.2 1.1-.8 1.7-1.1.6-.4 1.2-.6 1.7-.9.6-.3 1-.8 1.6-1.1.6-.4 1.3-.6 1.8-.9s.9-.8 1.3-1.1c.7-.5 1.6-.7 2.3-1.2.7-.4 1.3-1 2-1.4.8-.5 1.6-.8 2.4-1.3 2.2-1.4 4.6-2.7 6.8-4 .5-.3 1.4 1.2 1.8 1.6 1.1 1.2 2 2.3 3.1 3.5.6.6 1 1.3 1.5 1.8.3.4.8.6 1.1 1 .3.3.4.8.7 1.1s.8.6 1.1.9.5.9.9 1.2c.3.3.7.6 1.1 1.1.7.8 1.2 1.4 2 2.3.2.2 1 1 1 1.1 0 .3-.9.7-1.2.9-1.2.9-2.7 1.7-3.8 2.4-1.6 1.1-3.4 2.1-5.1 3.2-2.9 1.8-5.9 3.7-8.8 5.7-.5.3-1.1.5-1.3.8-.2.5 0 1.9 0 2.7v5.3c0 1.5-.1 2.7.6 3.5.5.6 1.3 1 2 1.5 1.4.9 2.6 1.9 4.1 2.9.3.2.7.4 1 .7 1 .7 1.1.8 2.2.2 1.8-1 3.4-1.9 5.2-2.9.3-.1 1.7-1.2 2.2-1.1.3.1.6 1 .7 1.4.2.5.7 1.2.6 1.5 0 .1-.7.5-1 .6-1 .7-2.1 1.3-3.1 1.8-1.5.8-2.7 1.7-4 2.5-2 1.1-4.1 2.3-6.2 3.6-.5.3-1.6 1.2-2.1 1.2-.4 0-1.2-.7-1.6-1-1.5-1.1-3.2-2-4.7-3.1-1-.7-2.1-1.3-3.1-2.1-1.8-1.4-3.7-1.9-3.9-4.8-.2-2.7 0-5.6 0-7.9v-6.9c-.1-3.4-.1-8.1-.1-13 0-.6 0-1.8-.1-1.9-.2-.1-.9.4-1.1.6-1.1 1.1-2.3 1.7-3.3 2.1zm20.1 5.1c1-.7 2.3-1.4 3.4-2.2.3-.2 1-.6 1-.9 0-.1-.5-.6-.6-.7-.5-.6-.8-1-1.3-1.5-.2-.3-.5-.5-.7-.8-.9-1-1.8-2.2-2.7-3.2-.5-.6-.9-1.2-1.3-1.7l-.9-.9c-.3-.3-.5-.7-.7-1.1-.1-.1-.7.3-.8.4-.1.3-.1 1.5-.1 1.9 0 4.2 0 8.2.1 13.4 1.6-.9 3.1-1.6 4.6-2.7zm179.7-21c.1 0 0-.1.1 0 1.2.9 2.2 2.3 3.4 3.5.8.9 1.7 1.6 2.5 2.6.3.4.5.9.7.9.4.1 1.2-.7 1.5-.9.5-.4 1.1-.7 1.5-.9 1.1-.6 2.1-1.3 3.1-1.8 1.5-.9 3.1-1.7 4.7-2.6.4-.2 1.3-.9 1.5-.9.3 0 1.1.6 1.4.9 1.2 1 2.5 2 3.7 2.9 1.8 1.5 4.6 2.7 5 5.5.2 1.3.1 2.8.1 4.2 0 6.5.1 15.2.1 24.1 0 2.4-.1 4.7.3 6.6.2.8.9 1.4 1.6 1.9.4.3 1 .7 1.2.7.4 0 1.5-.8 1.9-1 .2-.1 1.6-1.1 1.9-1.1.2.1.5.7.6 1.1s.5 1 .5 1.2c-.1.2-1.1.8-1.4.9-2.9 1.9-5.8 3.4-8.5 5.2-.4.2-1.1.8-1.4.8-.4 0-1.2-.6-1.5-.8-.7-.4-1-.6-1.5-.9-1.5-.9-3.2-1.7-3.9-3.4-1-2.3-.7-5.6-.7-8.9 0-2.7-.1-5.4-.1-8.2v-13.7c0-2.8 0-4.5-1.4-5.9-.4-.4-.9-.6-1.4-.9-.4-.3-.8-.8-1.2-1.2-.5-.4-1-.6-1.4-.9-.2-.2-.8-1.1-1.1-1.1s-1 .7-1.4 1c-.4.2-1 .5-1.5.7-.4.2-1.2.6-1.3.8-.2.5 0 1.7 0 2.5v15.9c0 4.3.1 9.6.1 14.6 0 2.5.2 4.9-1 6.2-.2.2-.6.5-.9.7-1.3.9-2.7 1.2-4.5 2.1-.7.3-1.4.7-2.2 1.1-.2.1-2 1.2-2.4.6-.2-.2-.1-2.4-.1-2.5 0-7.2-.1-17.3-.1-24.3v-12.8c0-1 .2-2.1 0-2.8-.1-.4-.7-1-1-1.4-.4-.5-.9-.9-1.2-1.2s-.6-1.2-1-1.2c-.6-.1-1.2.9-1.7 1.2-.3.2-.9.5-1.4.7-.4.2-1.1.8-1.3.8-.3 0-.8-.8-1-1-.1-.1-.9-.7-.9-1.2 0-.4 1.6-1 1.9-1.2.9-.5 1.8-1.3 2.7-1.8 1.9-1 3.7-2.3 5.5-3.5.9-.6 1.9-1.2 2.8-1.7 0-.2.1-.2.1-.2z"/><path d="m211.3 38.4c0 .2-.4.5-.5.4-.2-.2.1-.7.5-.4zm-143.8.7c.5-.4.3.9-.1.5-.2-.3 0-.5.1-.5zm285.7.7c1.2-.1-.6 1-.8.9-.4-.3.6-.8.8-.9zm-285 .2c.6 0 .2.4-.2.6-.2.1-1 .6-.7-.1.2-.2.7-.5.9-.5zm-49.5 24.9c-.1-.5.9-1.2 1.2-.9.4.3-.9 1-1.2.9zm10.6.8c.6-.1 1.3 0 2 .1s1.3-.1 2 0c.4 0 .8.2 1.3.3 2.2.4 4 .8 5.8 1.7 1.8 1 2.9 1.9 4.2 3.2.3.3.8 1.1 1.1 1.1.6.1 1.8-1.4 2.4-1.3.3.1.6.9.7 1.2s.6 1.1.6 1.3c-.1.2-1.1.7-1.5 1-3 2-5.8 3.7-8.7 5.9-.4.3-1.3.9-1.5.9-.3 0-.8-1-1-1.3-2.1-3.1-5.7-4.8-10.7-5.2-.6-.1-1.3.1-1.8.1h-1.4c-1.4.1-3 .5-4.4.8-4.3 1-7.9 2.6-11.2 4.4-.5.3-.8.6-1.5.9-.4.2-1.2.9-1.5.9-.2 0-1.1-.9-1.1-1.2 0-.2.7-.9 1.1-1.3.4-.5.8-1 1.1-1.3 3.4-3.3 7.2-6.1 11.4-8.3 2.1-1.1 4.5-2.1 7-2.8 1.3-.4 2.7-.7 4-.9.5-.2 1.1-.2 1.6-.2zm88.4 1.3c4.3-.2 7.6.7 10.4 2.3.8.5 1.5 1.1 2.3 1.8.2.2.6.6.7.6.2 0 .9-.4 1.2-.6.9-.5 1.3-.7 2.3-1.3.3-.2.9-.7 1.1-.6.3.1.5 1 .7 1.5.2.3.7 1 .6 1.2-.1.5-1.2.9-1.8 1.2-3.8 2.3-7.3 4.4-11.1 6.7-.5.3-1.6 1.1-1.9 1.1-.3-.1-.5-.8-.6-1.1-1.8-3.3-5.2-5.4-10.7-5-3.1.2-6.5 1.2-9.2 2.3-1.7.7-4 1.8-5.6 3-.4.3-1.4 1.1-1.7 1.1-.2 0-1.3-1.2-1.3-1.5 0-.2 1-1.2 1.4-1.6 2.5-2.6 5.3-4.6 8.4-6.6.6-.4 1.3-.7 2-1s1.3-.8 1.9-1.1c1.1-.5 2.5-.8 3.8-1.3 2.4-.5 4.3-1 7.1-1.1zm195.8 1.7c0 .5-.8.6-.8.3 0-.2.6-.4.8-.3zm-95.3.1c.3.6-.7.8-.7.5-.1-.3.4-.4.7-.5z"/><path d="m24.1 76.3c-.1.3-.9.7-1 .2.3-.1.6-.2 1-.2zm86.6.4c-.1.3-.5.5-.9.4.1-.4.5-.4.9-.4zm-10-67.2c-.1 0-.1 0 0 0-.1-.1-.1-.1-.1-.2.1-.1.2-.3.3-.4l.3-.3s.1-.1.1 0c0 0 .1.1 0 .1l-.3.3c0 .2-.2.3-.3.5zm-1.4 2s-.1 0 0 0c-.1-.1-.1-.1-.1-.2.2-.3.5-.5.9-.7.1-.1.3-.2.4-.3h.2v.2c-.1.1-.3.2-.5.3-.3.3-.6.4-.9.7zm-59.5.1s-.1 0-.1-.1 0-.1.1-.2c.2-.1.4-.2.6-.4.3-.2.6-.4.9-.5.1 0 .1 0 .1.1s0 .1-.1.1c-.3.1-.6.3-.8.4-.2.4-.4.5-.7.6zm1.1.6s-.1 0-.1-.1 0-.1.1-.1c.6-.2 1.1-.6 1.7-.9h.3v.2h-.1c-.6.3-1.2.7-1.9.9.1 0 .1 0 0 0zm1.3.7c-.1 0-.1-.1 0 0-.1-.1-.1-.2-.1-.2.5-.3 1.2-.7 1.9-1 .1 0 .1 0 .2.1 0 .1 0 .1-.1.2-.7.2-1.3.5-1.9.9zm56.4.3c-.1 0-.1 0 0 0-.1-.1-.1-.1-.1-.2.5-.4 1.2-.7 1.7-1h.1v.1c-.6.4-1.2.7-1.7 1.1zm-55.7.6s-.1 0-.1-.1v-.2c.3-.2.6-.3.9-.5.4-.2.8-.5 1.2-.7h.2v.2c-.4.2-.8.5-1.2.7-.3.3-.6.4-1 .6zm.8.9s-.1 0 0 0c-.1-.1-.1-.2-.1-.2.2-.1.5-.3.7-.4.5-.3.9-.5 1.4-.8h.2v.2c-.5.3-.9.5-1.4.8-.3.1-.5.2-.8.4zm54.5 0c-.1-.1-.1-.2-.1-.2.3-.2.7-.4 1.1-.6.3-.1.6-.3.8-.5h.1v.1c-.3.2-.6.3-.9.5-.2.3-.6.4-1 .7.1 0 .1 0 0 0zm-53.8 1s-.1 0 0 0c-.1-.1-.1-.2-.1-.2.3-.1.5-.3.8-.5.4-.3.9-.5 1.3-.8h.2v.2c-.4.2-.9.5-1.3.8-.3.2-.6.3-.9.5zm53.9.3c-.1 0-.1 0 0 0-.1-.1-.1-.1 0-.2.5-.3 1.1-.6 1.6-.9.2-.1.3-.2.5-.3h.1v.1c-.2.1-.3.2-.5.3-.6.4-1.2.7-1.7 1zm-53.3.6c-.1 0-.1 0 0 0-.1-.1-.1-.2-.1-.2.4-.2.7-.4 1.1-.6.3-.2.7-.4 1-.6h.1v.1c-.3.2-.7.4-1 .6-.4.3-.7.5-1.1.7zm259.9-.2c-.1 0-.1 0 0 0-.1-.1-.1-.2 0-.2.4-.2.7-.4 1.1-.6.3-.2.6-.4.9-.5h.1v.1c-.3.1-.6.3-.9.5-.5.3-.8.5-1.2.7zm-206.4.7c-.1-.1-.1-.1 0-.2.8-.4 1.5-.9 2.2-1.2h.1v.1c-.7.5-1.4.9-2.3 1.3.1 0 .1 0 0 0zm207.4.1s0-.1 0 0c-.1-.1-.1-.2-.1-.2.1-.1.3-.2.4-.3l1.5-.9c.1 0 .1 0 .2.1 0 .1 0 .1-.1.2-.5.2-1 .5-1.5.8 0 .1-.2.1-.4.3.1-.1.1 0 0 0zm-144.1-.1s-.1 0 0 0c-.1-.1-.1-.2-.1-.2l.1-.1c.6-.3 1.1-.7 1.7-1 .1 0 .1 0 .1.1s0 .1-.1.1c-.6.3-1.2.6-1.7.9zm-116.4.7c-.1 0-.1 0 0 0-.1-.1-.1-.1 0-.1.5-.3.9-.6 1.3-.9.3-.2.5-.4.8-.5h.1v.1c-.3.2-.5.3-.8.5-.5.3-.9.6-1.4.9zm91.9 0s-.1 0-.1-.1 0-.1.1-.2c.4-.2.7-.4 1-.6s.6-.4 1-.6c.1 0 .1 0 .2.1 0 .1 0 .1-.1.2-.3.2-.7.4-1 .6s-.7.4-1.1.6zm25.6.1c-.1 0-.1-.1 0 0-.1-.1-.1-.2-.1-.2.7-.4 1.4-.8 1.9-1.1h.1v.1c-.5.4-1.1.7-1.9 1.2zm144.1 0s-.1 0-.1-.1 0-.1.1-.2c.6-.3 1.2-.6 1.7-1l.3-.2h.2v.2l-.3.2c-.7.5-1.3.8-1.9 1.1zm-207.9.3c-.1-.1-.1-.2 0-.2.7-.4 1.4-.8 2.2-1.2h.1v.1c-.8.5-1.5.9-2.3 1.3.1 0 .1 0 0 0zm39.2.3s-.1 0-.1-.1 0-.1.1-.2c.8-.4 1.4-.7 2-1.1h.2v.2c-.8.4-1.4.8-2.2 1.2zm25.7 0s-.1-.1 0 0c-.1-.1-.1-.2 0-.2l1.2-.6.6-.3h.1v.1l-.6.3c-.4.3-.8.5-1.3.7zm143.9.2c-.1-.1-.1-.2-.1-.2.4-.3.9-.5 1.4-.7.2-.1.4-.2.7-.4h.1v.1c-.2.1-.4.2-.7.4-.4.3-.9.5-1.4.8.1 0 .1 0 0 0zm-207.9.2c-.1-.1-.1-.1 0-.2.7-.4 1.4-.8 2-1.1h.1v.1c-.7.4-1.3.8-2.1 1.2.1 0 .1 0 0 0zm39.3.3s-.1 0 0 0c-.1-.1-.1-.2-.1-.2.7-.4 1.4-.8 2-1.1h.1v.1c-.6.4-1.3.8-2 1.2zm25.8 0c-.1-.1-.1-.2-.1-.2.2-.1.5-.3.7-.4.4-.2.8-.5 1.2-.7h.1v.1l-1.2.6c-.1.3-.4.4-.7.6.1 0 .1 0 0 0zm143.6.5c-.1-.1-.1-.2-.1-.2.7-.5 1.5-.9 2.1-1.3h.2v.2c-.7.3-1.4.8-2.2 1.3.1 0 .1 0 0 0zm-289.4-.3c-.1-.1-.1-.1-.1-.2.2-.3.4-.4.7-.6.2-.1.3-.2.5-.3h.2v.2c-.2.2-.3.3-.5.4-.3.1-.6.2-.8.5zm82 .2s-.1 0 0 0c-.1-.1-.1-.2-.1-.2.1-.1.3-.2.4-.3.4-.3.8-.5 1.3-.8h.1v.1c-.4.2-.8.5-1.3.7 0 .3-.2.4-.4.5zm14.5-.3c-.1-.1-.1-.2-.1-.2.1-.1.3-.2.4-.3.3-.2.7-.4 1-.5.1 0 .1 0 .1.1s0 .1-.1.1c-.3.1-.7.3-1 .5.1.1-.1.2-.3.3.1 0 .1 0 0 0zm50.5.6s-.1 0 0 0c-.1-.1-.1-.2 0-.2.4-.2.7-.4 1-.6s.6-.4.9-.5h.1v.1c-.3.2-.6.4-.9.5-.3.3-.7.5-1.1.7zm-26.2.3s-.1 0 0 0c-.1-.1-.1-.2-.1-.2.5-.3 1-.6 1.4-.9.2-.1.4-.3.6-.4h.1v.1c-.2.1-.4.3-.6.4-.3.4-.8.7-1.4 1zm-23.6.1s-.1 0-.1-.1 0-.1.1-.2c.5-.2.9-.5 1.3-.7.3-.2.5-.3.8-.5h.2v.2c-.3.1-.5.3-.8.5-.5.3-.9.6-1.5.8zm-13.7-.2s-.1-.1 0 0c-.1-.1-.1-.2 0-.2.4-.1.7-.3 1.1-.6.1-.1.3-.2.4-.3h.1v.1c-.1.1-.3.2-.4.3-.4.3-.8.5-1.2.7zm206.6.5c-.1 0-.1 0 0 0-.1-.1-.1-.2 0-.2.8-.4 1.5-.8 2.2-1.2h.1v.1c-.8.5-1.5.9-2.3 1.3zm-142-.1s-.1 0 0 0c-.1-.1-.1-.2 0-.2.6-.3 1.2-.7 1.9-1h.1v.1c-.7.5-1.3.8-2 1.1zm-26.6.5s-.1 0-.1-.1 0-.1.1-.2c.7-.3 1.4-.7 2.1-1.1h.2v.2c-.8.5-1.5.8-2.3 1.2zm-23.9.3c-.1-.1-.1-.1 0-.2.7-.4 1.4-.8 2.1-1.1h.1v.1c-.8.4-1.5.8-2.2 1.2zm51.6-.1s-.1 0 0 0c-.1-.1-.1-.2 0-.2.4-.2.8-.4 1.1-.6.3-.1.5-.3.8-.4h.1v.1c-.3.1-.5.3-.8.4-.4.3-.7.5-1.2.7zm-150.1 0c-.1 0-.1 0 0 0-.1-.1-.1-.1-.1-.2.2-.2.5-.4.7-.5s.4-.2.6-.4h.2v.2c-.2.2-.4.3-.7.4s-.5.3-.7.5zm291.5.4s0-.1 0 0c-.1-.1-.1-.1-.1-.2.6-.4 1.2-.7 1.7-1 .1-.1.3-.2.4-.2h.1v.1c-.1.1-.3.2-.4.2-.5.4-1.1.7-1.7 1.1.1-.1.1 0 0 0zm-140.2.4c-.1 0-.1-.1 0 0-.1-.1-.1-.2-.1-.2.2-.1.4-.2.5-.3.5-.3.9-.6 1.4-.8.1 0 .1 0 .1.1s0 .1-.1.1c-.5.2-1 .5-1.4.8 0 0-.2.1-.4.3zm-28.6.2c-.1 0-.1 0 0 0-.1-.1-.1-.2-.1-.2.4-.2.8-.5 1.1-.7l.9-.6h.1v.1c-.3.2-.6.4-.9.5-.3.5-.7.7-1.1.9zm-23.9.3s-.1 0 0 0c-.1-.1-.1-.2 0-.2.6-.3 1.2-.7 1.7-1l.2-.1h.1v.1l-.2.1c-.6.4-1.2.8-1.8 1.1zm193.3.1s-.1 0-.1-.1v-.2c.9-.5 1.5-.8 2.1-1.2h.2v.2c-.6.5-1.3.9-2.2 1.3zm-292.8.4s-.1 0 0 0c-.1-.1-.1-.1-.1-.2.2-.3.5-.4.8-.6.2-.1.4-.2.6-.4h.2v.2c-.2.2-.4.3-.7.4s-.6.3-.8.6c0-.1 0 0 0 0zm123.5.5c-.1-.1-.1-.2 0-.2.2-.1.5-.3.7-.4.4-.2.8-.5 1.2-.7h.1v.1c-.4.2-.8.4-1.2.7-.2.2-.5.4-.8.5.1 0 .1 0 0 0zm169.6.3c-.1 0-.1-.1 0 0-.1-.1-.1-.2-.1-.2l.6-.3c.5-.3 1.1-.6 1.6-.9h.2v.2c-.5.3-1.1.6-1.6.9zm-193.6.1s-.1 0 0 0c-.1-.1-.1-.2 0-.2l.5-.3c.4-.3.9-.5 1.4-.8h.1v.1c-.5.3-.9.5-1.4.8zm-100.1.6c-.1-.1-.1-.2-.1-.2.3-.2.6-.4.9-.5.3-.2.6-.3.9-.6h.2v.2c-.3.3-.6.4-.9.6l-1 .5c.1 0 .1 0 0 0zm124.2.3c-.1 0-.1 0 0 0-.1-.1-.1-.2 0-.2l.2-.1c.6-.3 1.1-.7 1.7-1h.1v.1c-.6.3-1.1.6-1.7 1zm169.7.2s-.1 0-.1-.1v-.2c.3-.2.6-.4.9-.5.4-.2.8-.4 1.1-.7h.2v.2c-.4.2-.8.5-1.2.7-.2.2-.5.4-.9.6zm-193.7.2c-.1 0-.1 0 0 0-.1-.1-.1-.1 0-.2.6-.4 1.2-.7 1.9-1.1h.1v.1c-.8.5-1.4.8-2 1.2zm-100.5.9c-.1-.1-.1-.2-.1-.2l.9-.6c.3-.2.7-.4 1-.6h.2v.2c-.3.3-.7.5-1 .6-.3.2-.6.3-1 .6.1 0 .1 0 0 0zm294.2.1c-.1-.1-.1-.1 0-.1.4-.2.8-.5 1.1-.7s.6-.4 1-.6h.1v.1c-.3.2-.6.4-1 .6s-.7.5-1.2.7c.1 0 .1 0 0 0zm-169.8 0c-.1-.1-.1-.2 0-.2.6-.4 1.3-.7 1.9-1.1h.1v.1c-.6.4-1.3.8-2 1.2.1 0 .1 0 0 0zm-23.9.3c-.1 0-.1 0 0 0-.1-.1-.1-.2 0-.2l.6-.3c.4-.2.9-.5 1.3-.8h.1v.1c-.4.3-.9.5-1.3.8-.3.2-.5.3-.7.4zm-100.7.9s-.1 0 0 0c-.1-.1-.1-.2 0-.2.8-.4 1.4-.8 2-1.1h.1v.1c-.6.4-1.3.8-2.1 1.2zm124.7.1s-.1 0 0 0c-.1-.1-.1-.2-.1-.2l.2-.1c.5-.3 1.1-.6 1.6-.9h.1v.1c-.5.3-1.1.6-1.6.9zm-24.1.3c-.1-.1-.1-.2 0-.2.4-.2.8-.4 1.1-.6s.5-.3.8-.5h.1v.1c-.3.1-.5.3-.8.5-.3.3-.7.5-1.2.7.1 0 .1 0 0 0zm49.8-.2c-.1 0-.1 0 0 0-.1-.1-.1-.1-.1-.2.2-.2.5-.4.7-.5s.4-.2.5-.3h.2v.2c-.2.2-.4.3-.6.4-.3.1-.5.2-.7.4zm-150.4 1.2s0-.1 0 0c-.1-.1-.1-.2-.1-.2l1.5-.9.3-.2h.1v.1l-.3.2c-.4.4-.9.6-1.5 1 .1-.1.1 0 0 0zm124.6 0c-.1-.1-.1-.2 0-.2.7-.4 1.3-.7 1.9-1.1h.1v.1c-.6.5-1.2.8-2 1.2.1 0 .1 0 0 0zm-23.9.4c-.1 0-.1 0 0 0-.1-.1-.1-.2-.1-.2.6-.3 1.1-.6 1.6-1l.2-.1h.2v.2l-.2.1c-.6.4-1.1.7-1.7 1zm48.7.2c-.1-.1-.1-.1-.1-.2.3-.3.7-.4 1-.6.2-.1.4-.2.6-.4h.1v.1c-.2.1-.4.3-.7.4-.2.3-.5.4-.9.7.1 0 .1 0 0 0zm-149.5.7s-.1 0 0 0c-.1-.1-.1-.2 0-.2.5-.3 1-.5 1.5-.8.2-.1.3-.2.5-.3h.1v.1c-.2.1-.3.2-.5.3-.5.4-1 .6-1.6.9zm124.8 0c-.1 0-.1 0 0 0-.1-.1-.1-.2-.1-.2.2-.1.3-.2.5-.2.5-.3 1-.5 1.5-.8h.2v.2c-.5.3-1 .6-1.5.8-.3.1-.4.1-.6.2zm-24 .4c-.1 0-.1 0 0 0-.1-.1-.1-.2-.1-.2.2-.1.5-.3.8-.4.4-.2.8-.4 1.1-.6h.2v.2c-.4.2-.8.4-1.1.6-.4.1-.6.2-.9.4zm48.3.5c-.1 0-.1 0 0 0-.1-.1-.1-.2-.1-.2.3-.3.7-.5 1-.6s.5-.3.7-.4h.2v.2c-.2.2-.5.3-.8.5-.3 0-.7.2-1 .5zm-149 .5s-.1 0-.1-.1v-.2c.2-.1.4-.3.7-.4.4-.3.8-.5 1.3-.7.1 0 .1 0 .2.1 0 .1 0 .1-.1.2-.4.2-.9.5-1.3.7-.2.1-.4.3-.7.4zm124.6 0c-.1-.1-.1-.2-.1-.2.1-.1.3-.2.4-.3l1.5-.9h.2v.2l-1.5.9c-.1.1-.3.2-.5.3.1 0 .1 0 0 0zm-23.9.3s-.1 0-.1-.1v-.2l.3-.2c.5-.3 1.1-.6 1.6-1h.2v.2c-.5.4-1.1.7-1.6 1zm47.9.6c-.1-.1-.1-.2-.1-.2.3-.2.5-.3.8-.4.4-.2.8-.4 1.1-.7h.1v.1c-.4.3-.8.5-1.2.7-.1.2-.4.4-.7.5zm-148.6.3c-.1 0-.1 0 0 0-.1-.1-.1-.2-.1-.2l.3-.2c.6-.3 1.2-.6 1.8-1h.2v.2c-.6.3-1.2.7-1.8 1zm124.6.1c-.1-.1-.1-.2 0-.2.3-.2.7-.4 1-.5.3-.2.6-.3.9-.5h.1v.1c-.3.2-.6.3-.9.5s-.7.4-1.1.6zm-24 .4c-.1-.1-.1-.1-.1-.2.4-.4 1-.6 1.5-.9.2-.1.3-.2.5-.2h.1v.1c-.2.1-.3.2-.5.2-.4.4-1 .6-1.5 1 .1 0 .1 0 0 0zm48 .7s-.1 0-.1-.1v-.2c.4-.2.7-.5 1.1-.7.2-.2.5-.3.7-.5h.2v.2c-.2.2-.5.3-.7.5-.4.3-.8.6-1.2.8zm-148.4.2c-.1 0-.1 0 0 0-.1-.1-.1-.2-.1-.2.5-.2.9-.5 1.3-.8.2-.2.5-.3.7-.5h.2v.2c-.2.2-.5.3-.7.5-.5.2-.9.5-1.4.8zm124.5.1c-.1 0-.1-.1 0 0-.1-.1-.1-.2 0-.2.7-.3 1.3-.7 1.9-1.2l.1.2c-.7.4-1.3.9-2 1.2zm-24 .3c-.1 0-.1-.1 0 0-.1-.1-.1-.2 0-.2.7-.3 1.3-.6 1.9-1h.1v.1c-.7.4-1.3.8-2 1.1zm-100.4.8c-.1 0-.1 0 0 0-.1-.1-.1-.1-.1-.2.5-.4 1.1-.6 1.6-.9.2-.1.3-.1.5-.2h.1v.1c-.2.1-.3.1-.5.2-.5.3-1.1.6-1.6 1zm148 0c-.1-.1-.1-.1-.1-.2.5-.4 1.1-.7 1.6-1 .1-.1.3-.1.4-.2.1 0 .1 0 .1.1s0 .1-.1.1c-.1.1-.3.1-.4.2-.4.3-1 .6-1.5 1zm146.2.3s-.1 0 0 0c-.1-.1-.1-.1-.1-.2.7-.5 1.5-1 2.1-1.2h.1v.1c-.6.3-1.4.7-2.1 1.3zm-169.8-.1c-.1 0-.1 0 0 0-.1-.1-.1-.1-.1-.2.6-.4 1.2-.8 1.9-1.1h.1v.1c-.7.4-1.3.7-1.9 1.2zm-24.1.4c-.1-.1-.1-.2 0-.2l.9-.6c.3-.2.7-.5 1.1-.7.1 0 .1 0 .1.1s0 .1-.1.1c-.4.2-.7.4-1 .6-.3.3-.6.5-1 .7.1 0 .1 0 0 0zm-100.1.6s-.1 0-.1-.1 0-.1.1-.2c.8-.3 1.4-.7 1.9-1.1h.2v.2c-.6.5-1.3.8-2.1 1.2zm147.9.1c-.1 0-.1 0 0 0-.1-.1-.1-.2 0-.2.1-.1.3-.1.4-.2.5-.2 1.1-.5 1.5-.9h.1v.1c-.5.4-1 .7-1.6.9-.1.2-.3.2-.4.3zm146.2.2c-.1 0-.1 0 0 0-.1-.1-.1-.2 0-.2.2-.1.4-.2.7-.3.5-.2 1-.4 1.3-.8h.1v.1c-.4.4-.9.7-1.4.9-.2.1-.5.2-.7.3zm-169.9-.1s-.1 0 0 0c-.1-.1-.1-.1 0-.2.2-.1.5-.2.7-.3.5-.2.9-.4 1.2-.8h.1v.1c-.4.4-.8.6-1.3.8-.2.2-.5.3-.7.4zm-24 .4c-.1 0-.1 0 0 0-.1-.1-.1-.1 0-.2.7-.3 1.3-.7 1.9-.9h.1v.1c-.7.3-1.3.6-2 1zm-100.1.7c-.1-.1-.1-.2-.1-.2.6-.4 1.3-.9 2.1-1.3.1 0 .1 0 .2.1 0 .1 0 .1-.1.2-.7.3-1.4.8-2.1 1.2.1 0 .1 0 0 0zm147.7.2c-.1-.1-.1-.2 0-.2.3-.2.7-.4 1-.6s.6-.4 1-.6c.1 0 .1 0 .1.1s0 .1-.1.1c-.3.2-.7.4-1 .6-.2.2-.6.5-1 .6.1 0 .1 0 0 0zm146.2.3s-.1 0-.1-.1 0-.1.1-.2c.5-.2.9-.5 1.3-.8.3-.2.5-.4.8-.5h.2c.1 0 0 .1 0 .2-.3.2-.5.3-.8.5-.5.4-1 .6-1.5.9zm-169.8-.1c-.1 0-.1 0 0 0-.1-.1-.1-.2 0-.2.4-.2.8-.5 1.2-.7.2-.2.4-.3.7-.4h.1v.1c-.2.1-.5.3-.7.4-.4.3-.8.6-1.3.8zm-24.1.3c-.1-.1-.1-.2 0-.2.6-.3 1.2-.6 2-1.2h.1v.1c-.8.6-1.4 1-2.1 1.3zm123.8.1s-.1 0-.1-.1 0-.1.1-.2c.8-.4 1.4-.7 1.9-1.1h.2v.2c-.6.4-1.2.8-2.1 1.2.1 0 .1 0 0 0zm-223.5.4c-.1 0-.1-.1 0 0-.1-.1-.1-.2 0-.2.2-.1.5-.2.7-.4.5-.2 1-.5 1.4-.8h.1v.1c-.5.3-.9.6-1.4.8-.3.2-.6.3-.8.5 0-.1 0 0 0 0zm243 .3s-.1 0-.1-.1v-.2c.5-.3 1.1-.6 1.6-.9.2-.1.3-.2.5-.2.1 0 .1 0 .2.1v.2c-.2.1-.3.2-.5.2-.6.3-1.1.6-1.7.9zm-95.5 0s-.1 0 0 0c-.1-.1-.1-.2-.1-.2l.6-.3c.4-.2.9-.5 1.3-.7.1 0 .1 0 .1.1s0 .1-.1.1c-.4.2-.9.4-1.3.7 0 .1-.2.2-.5.3zm76.8.1s-.1 0-.1-.1 0-.1.1-.1c.3-.1.6-.3.9-.5.4-.2.7-.4 1.1-.6.1 0 .1 0 .1.1s0 .1-.1.1c-.4.2-.7.4-1.1.6-.2.2-.5.3-.9.5zm-100.5.1s-.1-.1 0 0c-.1-.1-.1-.2-.1-.2.2-.1.5-.3.7-.4.4-.2.8-.5 1.2-.7.1 0 .1 0 .1.1s0 .1-.1.1c-.4.2-.8.4-1.2.7-.1.1-.3.2-.6.4zm169.8 0c-.1-.1-.1-.2-.1-.2.6-.4 1.1-.7 1.7-1l.3-.1h.1v.1l-.3.1c-.5.5-1 .8-1.7 1.1.1 0 .1 0 0 0zm-193.8.4c-.1 0-.1-.1 0 0-.1-.1-.1-.2-.1-.2.3-.2.7-.4 1-.6s.6-.3.9-.5h.2v.2c-.3.2-.6.3-.9.5-.4.2-.7.4-1.1.6zm144.1.2s-.1 0-.1-.1 0-.1.1-.2l1.5-.9c.2-.1.4-.2.6-.4h.2v.2c-.2.1-.4.2-.6.4-.6.4-1.1.7-1.7 1zm-243.7.1s-.1 0-.1-.1v-.2c.2-.1.4-.2.5-.3.5-.3 1.1-.6 1.6-.9h.2v.2c-.5.3-1.1.6-1.6.9-.1.1-.3.2-.6.4.1 0 .1 0 0 0zm193.3-.3s-.1 0-.1-.1 0-.1.1-.2c.2-.1.4-.2.5-.3.2-.1.4-.3.6-.4.1 0 .1 0 .2.1 0 .1 0 .1-.1.2l-.6.3c-.2.2-.4.3-.6.4zm31.6.4s-.1 0-.1-.1v-.2l1.5-.9.4-.2h.2v.2l-.4.2c-.5.5-1 .8-1.6 1zm-77.6.4c-.1 0-.1-.1 0 0-.1-.1-.1-.2-.1-.2.3-.2.6-.4.9-.5.4-.2.7-.4 1.1-.6h.2v.2c-.3.2-.7.4-1.1.6-.4.1-.7.3-1 .5 0-.1 0 0 0 0zm97.4.2c-.1 0-.1-.1 0 0-.1-.1-.1-.2-.1-.2.2-.1.5-.3.7-.4.5-.3.9-.5 1.4-.8.1 0 .1 0 .1.1s0 .1-.1.1c-.5.2-1 .5-1.4.8-.1.1-.3.2-.6.4zm48.7 0s-.1 0 0 0c-.1-.1-.1-.2-.1-.2.4-.2.7-.4 1.1-.6.3-.2.7-.4 1-.6h.1v.1c-.3.2-.7.4-1 .6-.3.3-.7.5-1.1.7zm-169.8-.1c-.1 0-.1 0 0 0-.1-.1-.1-.2-.1-.2.4-.3.9-.5 1.3-.8.2-.1.4-.2.6-.4h.2v.2c-.2.1-.4.2-.6.4-.5.3-1 .5-1.4.8zm70 .3s-.1 0-.1-.1v-.2c.4-.2.8-.5 1.2-.7.3-.1.5-.3.8-.4h.2v.2c-.3.1-.5.3-.8.4-.4.3-.8.5-1.3.8zm-94 .1c-.1 0-.1 0 0 0-.1-.1-.1-.2-.1-.2l1.5-.9.4-.2h.2v.2l-.4.2c-.5.3-1.1.6-1.6.9zm-99.4.2s-.1 0 0 0c-.1-.1-.1-.2-.1-.2.2-.1.3-.2.5-.3.5-.3 1-.7 1.6-.9h.1v.1c-.5.3-1.1.6-1.6.9-.1.2-.3.3-.5.4zm224.9.2c-.1 0-.1 0 0 0-.1-.1-.1-.2 0-.2l1.5-.9.3-.2h.1v.1l-.3.2c-.6.4-1.1.7-1.6 1zm20.5.1s-.1 0-.1-.1 0-.1.1-.2c.4-.2.8-.4 1.2-.7l.9-.6h.2v.2c-.3.2-.6.4-.9.5-.5.5-.9.7-1.4.9zm-50.9.1s-.1 0-.1-.1 0-.1.1-.2c.5-.2.9-.5 1.4-.8.2-.1.4-.3.6-.4h.2v.2c-.2.1-.4.2-.6.4-.6.4-1.1.7-1.6.9zm-47.4.2s-.1 0-.1-.1v-.2l.2-.1c.6-.3 1.1-.6 1.6-1h.2v.2c-.5.4-1.1.7-1.7 1zm-23.7.1s-.1 0-.1-.1 0-.1.1-.2c.7-.3 1.4-.7 1.9-1.1h.2v.2c-.7.5-1.3.9-2.1 1.2zm169.9.1c-.1 0-.1-.1 0 0-.1-.1-.1-.2 0-.2l.2-.1c.6-.3 1.3-.6 1.9-1.1h.1v.1c-.6.4-1.3.8-1.9 1.1l-.3.2c0-.1 0 0 0 0zm41.4-.3s-.1 0-.1-.1v-.2c.5-.3.9-.5 1.4-.8h.2v.2c-.5.4-1 .6-1.5.9zm-284.9.1s-.1 0-.1-.1 0-.1.1-.1c.4-.2.9-.4 1.3-.7h.2v.2c-.5.2-1 .5-1.5.7zm49.6.4s-.1 0 0 0c-.1-.1-.1-.2-.1-.2.3-.2.6-.3.9-.5s.7-.4 1-.5h.1v.1c-.3.2-.7.4-1 .5-.3.3-.5.5-.9.6zm96.3 0s-.1 0-.1-.1 0-.1.1-.1c.5-.2 1-.4 1.4-.7.2-.1.3-.2.5-.3h.2v.2c-.2.1-.3.2-.5.3-.6.2-1.1.5-1.6.7zm-195.4.1c-.1 0-.1 0 0 0-.1-.1-.1-.2 0-.2.2-.1.3-.2.5-.3.5-.3 1-.5 1.5-.8h.1v.1c-.5.3-1 .6-1.5.8-.3.2-.4.3-.6.4zm245.8.1s-.1 0 0 0c-.1-.1-.1-.2 0-.2.4-.2.9-.5 1.3-.7.3-.2.6-.3.9-.5h.1v.1c-.3.2-.6.3-.9.5-.5.4-.9.6-1.4.8zm-21.6.3c-.1-.1-.1-.1-.1-.2.6-.4 1.3-.7 1.9-1.1h.2v.1h-.1c-.6.4-1.2.8-1.9 1.2.1 0 .1 0 0 0zm110.2.3s-.1 0-.1-.1v-.2l.1-.1c.7-.4 1.3-.8 2-1.1.1 0 .1 0 .2.1 0 .1 0 .1-.1.2-.7.3-1.4.7-2 1.1zm-137.9-.1s-.1 0-.1-.1 0-.1.1-.2c.3-.1.6-.3.9-.5.4-.2.7-.4 1.1-.6.1 0 .1 0 .2.1 0 .1 0 .1-.1.2-.4.1-.7.4-1.1.6-.3.2-.6.3-1 .5zm-147 .3s-.1-.1 0 0c-.1-.1-.1-.2-.1-.2.6-.4 1.4-.8 2.1-1.2.1 0 .1 0 .2.1 0 .1 0 .1-.1.2-.7.2-1.4.6-2.1 1.1.1-.1 0 0 0 0zm97.3 0c-.1 0-.1-.1 0 0-.1-.1-.1-.2-.1-.2.6-.4 1.2-.7 1.8-1.1l.1-.1h.2v.2l-.1.1c-.7.3-1.3.6-1.9 1.1 0-.1 0 0 0 0zm146.1.2s0-.1 0 0c-.1-.1-.1-.2-.1-.2.2-.1.4-.3.6-.4l1.5-.9h.1v.1c-.5.2-1 .6-1.4.8-.2.3-.4.4-.7.6.1 0 .1 0 0 0zm-169.7-.1c-.1 0-.1 0 0 0-.1-.1-.1-.2-.1-.2.7-.5 1.4-.9 1.9-1.2h.1v.1c-.5.4-1.2.8-1.9 1.3zm-123.1.4s-.1 0-.1-.1v-.2c.3-.2.7-.5 1.1-.7.3-.2.7-.4 1-.6h.2v.2c-.3.2-.7.4-1 .6-.4.3-.7.5-1.2.8.1 0 .1 0 0 0zm246 0s-.1 0 0 0c-.1-.1-.1-.2-.1-.2.4-.2.8-.5 1.2-.8.3-.2.5-.3.8-.5h.2v.2c-.3.2-.5.3-.8.5-.4.3-.8.5-1.3.8zm-147 0s-.1-.1 0 0c-.1-.1-.1-.2 0-.2.5-.2.9-.5 1.4-.8.2-.1.3-.2.5-.3h.1v.1c-.2.1-.3.2-.5.3zm98.3.1c-.1-.1-.1-.2-.1-.2.2-.2.5-.3.8-.5.4-.3.9-.5 1.3-.8h.2v.2c-.4.3-.9.5-1.3.8-.3.2-.5.4-.9.5.1 0 .1 0 0 0zm137.8.1s-.1 0-.1-.1 0-.1.1-.2c.4-.2.8-.4 1.1-.6l.9-.6c.1 0 .1 0 .2.1 0 .1 0 .1-.1.2l-.9.6c-.4.2-.7.4-1.2.6zm-110.9.1s-.1 0 0 0c-.1-.1-.1-.2 0-.2.6-.3 1.2-.7 1.8-1l.3-.2h.1v.1l-.3.2c-.6.4-1.2.8-1.9 1.1zm-174.1.1c-.1-.1-.1-.2 0-.2l2.1-1.2h.1v.1c-.7.5-1.4.9-2.2 1.3.1 0 .1 0 0 0zm96.6.3c-.1 0-.1 0 0 0-.1-.1-.1-.2 0-.2.1-.1.2-.1.3-.2.5-.3 1.1-.5 1.6-.9h.1v.1c-.5.4-1.1.7-1.6.9-.2.2-.3.3-.4.3zm146.2.2c-.1 0-.1 0 0 0-.1-.1-.1-.2 0-.2.8-.4 1.5-.7 2.1-1.1h.1v.1c-.7.5-1.4.8-2.2 1.2zm-169.8-.1c-.1 0-.1 0 0 0-.1-.1-.1-.1 0-.2.2-.1.4-.2.7-.3.4-.2.8-.4 1.2-.7h.1v.1c-.4.3-.8.5-1.2.7zm194 .1c-.1-.1-.1-.1 0-.2.4-.2.9-.5 1.3-.7.3-.1.5-.3.8-.4h.1v.1c-.3.1-.5.3-.8.4-.4.3-.9.6-1.4.8zm-316.9.2s0-.1 0 0c-.1-.1-.1-.2 0-.2.2-.1.5-.3.8-.4.5-.2.9-.5 1.4-.7h.1v.1c-.5.3-.9.5-1.4.7-.3.2-.6.3-.9.5zm335.8-.1c-.1 0-.1 0 0 0-.1-.1-.1-.2-.1-.2.3-.1.5-.3.8-.4.4-.2.8-.4 1.2-.7h.1v.1c-.4.2-.8.5-1.3.7-.2.2-.4.3-.7.5zm-303.5 0c-.1 0-.1 0 0 0-.1-.1-.1-.2 0-.2.5-.3 1.1-.6 1.6-.8l.3-.2h.1v.1l-.3.2c-.6.3-1.2.6-1.7.9zm213.5.2s-.1 0 0 0c-.1-.1-.1-.1 0-.2l1.2-.6c.3-.2.6-.3.9-.5h.1v.1c-.3.2-.6.3-.9.5-.5.2-.9.5-1.3.7zm-195 0s-.1 0 0 0c-.1-.1-.1-.2-.1-.2.6-.4 1.3-.7 1.9-1h.2v.1h-.1c-.6.4-1.2.7-1.9 1.1zm146.5 0s-.1 0 0 0c-.1-.1-.1-.2 0-.2.4-.2.8-.4 1.3-.7.3-.2.6-.3.9-.5h.2v.2c-.3.1-.6.3-.9.4-.6.4-1 .6-1.5.8zm-98.5 0c-.1 0-.1 0 0 0-.1-.1-.1-.1 0-.2.3-.2.7-.4 1.1-.6.3-.2.6-.3.9-.5h.1v.1c-.3.2-.6.3-.9.5-.5.3-.9.5-1.2.7zm125.2.4s-.1 0 0 0c-.1-.1-.1-.1-.1-.2l1.5-.9c.2-.1.3-.2.5-.3h.1v.1c-.2.1-.3.2-.5.3-.4.4-1 .7-1.5 1zm-48.4 0c-.1-.1-.1-.1-.1-.2.6-.4 1.2-.7 1.9-1.1l.1-.1h.1v.1l-.1.1c-.6.5-1.3.8-1.9 1.2zm160.8.4s-.1 0 0 0c-.1-.1-.1-.1 0-.1.7-.5 1.4-1 2-1.3h.1v.1c-.7.3-1.4.7-2.1 1.3zm-284.9.1s-.1 0 0 0c-.1 0-.1-.1 0-.1.4-.3.9-.6 1.3-.9.2-.1.5-.3.7-.4h.1v.1c-.2.1-.5.3-.7.4-.5.3-1 .5-1.4.9zm95 0s-.1 0 0 0c-.1-.1-.1-.2-.1-.2.6-.4 1.2-.8 1.8-1.1h.1v.1c-.5.4-1.1.8-1.8 1.2zm146.1.3s-.1 0-.1-.1 0-.1.1-.2c.3-.2.7-.4 1-.6.4-.2.7-.5 1.1-.7.1 0 .1 0 .2.1 0 .1 0 .1-.1.2-.4.2-.7.4-1.1.6-.3.3-.6.5-1.1.7.1 0 .1 0 0 0zm-292.3 0c-.1 0-.1 0 0 0-.1-.1-.1-.2-.1-.2.3-.2.6-.3.8-.5.4-.2.8-.5 1.2-.7h.2v.2c-.4.2-.8.5-1.2.7-.3.1-.6.3-.9.5zm122.5-.1s-.1-.1 0 0c-.1-.1-.1-.2 0-.2l.9-.6c.3-.2.7-.4 1-.6h.1v.1c-.3.2-.7.4-1 .6-.3.3-.6.5-1 .7zm194.2.1s-.1 0-.1-.1v-.2c.3-.2.5-.3.8-.5.4-.3.8-.5 1.3-.8h.2v.2c-.4.2-.9.5-1.3.8-.4.2-.6.4-.9.6zm-45.3-.1s-.1 0 0 0c-.1-.1-.1-.1 0-.2.2-.1.4-.3.6-.4.5-.3.9-.6 1.4-.8h.1v.1c-.5.2-1 .5-1.4.8-.2.2-.5.4-.7.5zm-239.4.1s-.1 0-.1-.1v-.2l.9-.6c.3-.2.7-.4 1-.6h.2v.2c-.3.2-.7.4-1 .6-.3.3-.6.5-1 .7.1 0 .1 0 0 0zm213.5.2s0-.1 0 0c-.1-.1-.1-.2 0-.2.5-.2.9-.5 1.4-.8.2-.2.5-.3.7-.5h.1v.1c-.2.1-.5.3-.7.5-.5.3-.9.6-1.5.9.1 0 .1 0 0 0zm-48.4 0c-.1 0-.1 0 0 0-.1-.1-.1-.2 0-.2.5-.2 1-.5 1.4-.8.2-.1.4-.3.6-.4h.1v.1c-.2.1-.4.3-.6.4zm-98.6 0s-.1 0 0 0c-.1-.1-.1-.2 0-.2.4-.1.7-.4 1-.6s.5-.4.8-.5h.1v.1c-.3.1-.5.3-.8.5-.3.3-.7.5-1.1.7zm76.8.4c-.1 0-.1 0 0 0-.1-.1-.1-.2 0-.2.7-.4 1.4-.7 2-1.2h.1v.1c-.7.5-1.4.9-2.1 1.3zm48.7-.1c-.1-.1-.1-.2 0-.2.6-.3 1.2-.6 1.7-1h.1v.1c-.5.5-1.1.8-1.8 1.1.1 0 .1 0 0 0zm-77.8.4s-.1 0 0 0c-.1-.1-.1-.2 0-.2.6-.3 1.3-.6 2-1.1h.1v.1c-.7.6-1.4.9-2.1 1.2zm-146 .2s0-.1 0 0c-.1-.1-.1-.2-.1-.2.3-.2.6-.3.9-.5.4-.2.8-.4 1.1-.6h.2v.2c-.4.2-.8.4-1.1.6-.3.1-.6.3-1 .5.1-.1 0 0 0 0zm271.2.1s-.1-.1 0 0c-.1-.1-.1-.2-.1-.2.4-.2.7-.4 1.1-.6.3-.2.7-.3 1-.5h.1v.1c-.3.2-.7.4-1 .5-.3.3-.7.4-1.1.7zm20.9.1s-.1 0 0 0c-.1-.1-.1-.2-.1-.2.4-.3.9-.5 1.3-.8.3-.1.6-.3.9-.5h.1v.1c-.3.2-.6.3-.9.5-.4.4-.8.6-1.3.9zm24.3-.1c-.1-.1-.1-.2-.1-.2.4-.3.9-.5 1.3-.7.3-.1.6-.3.8-.4h.1v.1c-.3.2-.6.3-.8.4-.4.3-.8.5-1.3.8.1 0 .1 0 0 0zm-194-.1c-.1 0-.1 0 0 0-.1-.1-.1-.1 0-.2.7-.4 1.3-.7 1.8-1h.1v.1c-.6.4-1.2.7-1.9 1.1zm-90.6.2c-.1 0-.1 0 0 0-.1-.1-.1-.2-.1-.2.6-.4 1.2-.7 1.7-1l.2-.1h.1v.1l-.2.1c-.6.5-1.1.8-1.7 1.1zm165.1.1c-.1-.1-.1-.1-.1-.2.6-.4 1.2-.7 2-1.1h.1v.1c-.7.5-1.4.9-2 1.2zm48.4.1c-.1-.1-.1-.2-.1-.2.7-.4 1.4-.8 2-1.1h.1v.1c-.6.4-1.2.7-2 1.2.1 0 .1 0 0 0zm-147 0c-.1-.1-.1-.1-.1-.2.6-.4 1.3-.8 1.9-1.1h.1v.1c-.6.4-1.2.7-1.9 1.2zm76.9.4s-.1 0-.1-.1v-.2c.2-.1.3-.2.5-.3.5-.3 1-.6 1.5-.8.1 0 .1 0 .2.1 0 .1 0 .1-.1.2-.5.2-1 .5-1.4.8zm48.6 0s-.1 0-.1-.1v-.2c.2-.1.4-.2.5-.3.4-.2.8-.5 1.2-.7.1 0 .1 0 .2.1 0 .1 0 .1-.1.2-.4.2-.8.5-1.2.7-.1.1-.3.2-.5.3zm-223.6.5c-.1 0-.1 0 0 0-.1-.1-.1-.2-.1-.2.4-.2.8-.5 1.2-.7.3-.2.5-.3.8-.5h.2v.1c-.3.2-.5.3-.8.5-.4.3-.8.5-1.3.8zm145.8-.1s-.1 0 0 0c-.1-.1-.1-.2 0-.2l1.5-.9c.2-.1.3-.2.5-.3h.1v.1c-.2.1-.3.2-.5.3-.5.4-1 .8-1.6 1zm125.2.2s-.1 0-.1-.1v-.2l.1-.1c.7-.4 1.3-.7 2-1.2h.2v.2c-.6.4-1.3.8-2 1.2zm-148.9 0s-.1 0-.1-.1 0-.1.1-.2c.7-.3 1.3-.8 1.9-1.1h.2v.2c-.7.4-1.3.9-2.1 1.2zm169.9.1s-.1 0-.1-.1 0-.1.1-.2c.6-.3 1.2-.7 2-1.2h.2v.2c-.6.4-1.4.9-2.2 1.3zm24.3 0s-.1 0-.1-.1v-.2c.7-.3 1.3-.7 1.9-1.1l.1-.1h.2v.2l-.1.1c-.7.4-1.3.8-2 1.2zm-284.7.1s-.1 0-.1-.1v-.2c.2-.1.4-.2.6-.4.4-.2.9-.5 1.3-.8h.2v.2c-.4.3-.9.6-1.3.8-.2.2-.4.3-.7.5zm213.6.1c-.1 0-.1 0 0 0-.1-.1-.1-.2-.1-.2.3-.2.6-.3.8-.5.4-.2.9-.5 1.3-.8h.2v.2c-.4.3-.9.6-1.3.8-.3.2-.6.3-.9.5zm-48.5 0s-.1 0-.1-.1v-.2c.2-.1.5-.3.7-.4.4-.2.9-.5 1.3-.7h.2v.2c-.4.3-.9.5-1.3.8-.3.2-.5.3-.8.4zm-98.6 0s-.1 0 0 0c-.1-.1-.1-.2 0-.2.7-.3 1.3-.7 1.9-1.1h.1v.1c-.6.5-1.3.9-2 1.2zm76.8.4s-.1 0 0 0c-.1-.1-.1-.2-.1-.2l.6-.3c.5-.2.9-.5 1.4-.8h.2v.2c-.5.3-.9.5-1.4.8-.2.1-.4.2-.7.3zm48.7 0c-.1 0-.1 0 0 0-.1-.1-.1-.2-.1-.2.2-.1.5-.3.7-.4.4-.2.8-.4 1.1-.7h.2v.2c-.4.3-.8.5-1.2.7-.2.2-.5.3-.7.4zm-223.4.4s-.1 0-.1-.1v-.2c.4-.2.8-.5 1.2-.7.3-.2.6-.3.8-.5h.2v.2c-.3.2-.6.3-.8.5-.5.3-.9.5-1.3.8zm145.7 0-.1-.2c.6-.3 1.2-.7 1.8-1h.1v.1c-.6.4-1.2.7-1.8 1.1zm125.1.3c-.1 0-.1-.1 0 0-.1-.1-.1-.2-.1-.2l.4-.2c.5-.3 1.1-.6 1.6-.9h.2v.2c-.5.3-1.1.6-1.6.9l-.5.2c0-.1 0 0 0 0zm-148.9 0c-.1 0-.1 0 0 0-.1-.1-.1-.2-.1-.2.4-.3.8-.5 1.2-.7.3-.1.5-.3.8-.4h.2v.2c-.2.1-.5.3-.8.4-.5.2-.9.4-1.3.7zm169.8 0c-.1-.1-.1-.2 0-.2.3-.2.6-.4 1-.5.4-.2.8-.4 1.1-.6h.1v.1c-.4.2-.8.4-1.1.6-.4.3-.7.4-1.1.6zm24.3 0c-.1-.1-.1-.2-.1-.2.3-.2.6-.3.9-.5.4-.2.8-.5 1.2-.7h.1v.1c-.4.3-.8.5-1.2.7-.2.3-.5.4-.9.6.1 0 .1 0 0 0zm-284.6.1c-.1 0-.1 0 0 0-.1-.1-.1-.2 0-.2.7-.4 1.3-.8 2-1.1h.1v.1zm213.5.2s0-.1 0 0c-.1-.1-.1-.2-.1-.2.3-.2.7-.4 1.1-.6.3-.2.7-.4 1-.6h.2v.2c-.3.2-.7.4-1 .6-.4.1-.8.3-1.2.6.1 0 .1 0 0 0zm-48.4 0s-.1 0-.1-.1v-.2c.3-.2.6-.3.9-.5.4-.2.8-.4 1.2-.7h.2v.2c-.4.2-.8.5-1.2.7s-.7.4-1 .6zm-98.6 0s-.1 0 0 0c-.1-.1-.1-.2-.1-.2.3-.2.5-.3.8-.5.4-.2.7-.4 1.1-.6h.2v.2c-.4.2-.7.4-1.1.6-.3.2-.6.3-.9.5zm76.8.4s-.1 0 0 0c-.1-.1-.1-.2-.1-.2.4-.2.8-.5 1.2-.7.3-.2.6-.3.8-.5h.2v.2c-.3.2-.6.3-.8.5-.4.2-.8.4-1.3.7zm48.7 0s-.1 0-.1-.1v-.2c.4-.2.7-.4 1-.6.2-.1.5-.3.7-.4h.2v.2c-.2.1-.5.3-.7.4-.4.3-.7.5-1.1.7zm-223.2.2s-.1 0-.1-.1v-.2c.6-.4 1.4-.8 2-1.2h.2v.2c-.7.5-1.4.9-2.1 1.3zm145.4.2s-.1 0 0 0c-.1-.1-.1-.2-.1-.2.6-.3 1.3-.7 2-1.1h.2v.2c-.8.4-1.4.7-2.1 1.1zm-23.7.2s-.1 0-.1-.1v-.2c.3-.2.6-.3.9-.5s.7-.4 1-.6h.2v.2c-.3.2-.7.4-1 .6-.4.2-.6.4-1 .6zm148.9 0s-.1 0 0 0c-.1-.1-.1-.2 0-.2.2-.1.5-.3.7-.4.4-.2.9-.5 1.3-.8h.1v.1c-.4.3-.9.5-1.3.8-.3.2-.5.3-.8.5zm21 0c-.1 0-.1 0 0 0-.1-.1-.1-.2 0-.2.4-.2.8-.4 1.1-.6s.6-.4 1-.5h.1v.1c-.3.2-.6.4-1 .5-.4.3-.8.5-1.2.7zm24.2 0c-.1-.1-.1-.2 0-.2l.4-.2c.6-.3 1.1-.6 1.7-1h.1v.1c-.6.3-1.1.6-1.7 1zm-284.6.1c-.1-.1-.1-.2-.1-.2.3-.2.5-.3.8-.5s.7-.4 1-.6h.1v.1c-.3.2-.7.4-1 .6-.2.3-.5.4-.8.6zm165.1.2c-.1 0-.1 0 0 0-.1-.1-.1-.2 0-.2.5-.2.9-.5 1.4-.8.3-.2.5-.3.8-.5h.1v.1c-.3.1-.5.3-.8.5-.6.4-1 .7-1.5.9zm48.4 0c-.1-.1-.1-.2 0-.2.4-.2.7-.4 1.1-.6.3-.2.7-.4 1-.6h.1v.1c-.3.2-.7.4-1 .6-.4.3-.8.5-1.2.7.1 0 .1 0 0 0zm-147 0s-.1 0-.1-.1v-.2c.7-.4 1.3-.7 1.9-1.1h.2v.2c-.6.4-1.2.8-2 1.2.1 0 .1 0 0 0zm76.8.4c-.1 0-.1 0 0 0-.1-.1-.1-.2-.1-.2.3-.2.6-.3.9-.5.4-.2.8-.4 1.1-.7h.1v.1c-.4.2-.8.5-1.2.7-.2.3-.5.5-.8.6zm-174.3.1s-.1 0-.1-.1v-.2c.3-.1.5-.3.8-.4.4-.2.8-.5 1.2-.7h.2v.2c-.4.2-.8.5-1.2.7s-.6.4-.9.5zm223-.1c-.1-.1-.1-.2-.1-.2.2-.2.5-.3.8-.4.3-.2.7-.4 1-.6h.1v.1c-.3.2-.7.4-1 .6-.2.2-.5.3-.8.5zm-77.8.5s-.1-.1 0 0c-.1-.1-.1-.2-.1-.2.4-.2.8-.5 1.2-.7.2-.1.4-.2.6-.4h.2v.2c-.2.1-.4.2-.6.4-.4.2-.8.4-1.3.7 0-.1 0 0 0 0zm125.2.1s-.1 0 0 0c-.1-.1-.1-.2 0-.2.4-.2.7-.4 1.1-.6.3-.2.6-.4 1-.5h.1v.1c-.3.2-.6.4-1 .5-.4.3-.8.5-1.2.7zm-148.9 0c-.1-.1-.1-.2-.1-.2.5-.4 1.1-.7 1.7-1l.2-.1h.1v.1l-.2.1c-.5.4-1.1.7-1.7 1.1.1 0 .1 0 0 0zm169.9 0c-.1-.1-.1-.2 0-.2.2-.1.4-.2.6-.4.4-.3.9-.5 1.4-.8h.1v.1c-.5.2-.9.5-1.4.8-.2.3-.4.4-.7.5.1 0 .1 0 0 0zm24.2.1s0-.1 0 0c-.1-.1-.1-.2-.1-.2.4-.3.9-.5 1.3-.8.2-.1.4-.2.6-.4h.1v.1c-.2.1-.4.2-.6.4-.3.3-.8.6-1.3.9.1 0 .1 0 0 0zm-284.6.1c-.1 0-.1 0 0 0-.1-.1-.1-.1-.1-.2.4-.2.7-.4 1.1-.6.3-.2.6-.3.9-.5h.1v.1c-.3.2-.6.4-.9.5-.3.2-.7.4-1.1.7zm165.1.1s-.1 0 0 0c-.1-.1-.1-.2 0-.2.4-.2.7-.4 1.1-.6.3-.2.6-.4 1-.6h.1v.1c-.3.2-.7.4-1 .6-.4.3-.8.5-1.2.7zm48.5 0c-.1 0-.1 0 0 0-.1-.1-.1-.2 0-.2.4-.2.7-.4 1.1-.6.3-.2.7-.4 1-.6h.1v.1c-.3.2-.7.4-1 .6-.5.3-.8.5-1.2.7zm-147.1 0s-.1 0 0 0c-.1-.1-.1-.2-.1-.2.7-.4 1.3-.8 1.9-1.1h.2v.2c-.6.3-1.2.7-2 1.1zm-97.3.5s-.1 0-.1-.1v-.2c.6-.4 1.3-.8 1.9-1.1h.2v.2c-.7.4-1.4.8-2 1.2zm174.1 0s-.1-.1 0 0c-.1-.1-.1-.2 0-.2l1.5-.9c.2-.1.3-.2.5-.3h.1v.1c-.2.1-.3.2-.5.3-.5.4-1 .7-1.6 1 0-.1 0 0 0 0zm48.8-.1c-.1 0-.1 0 0 0-.1-.1-.1-.2-.1-.2.3-.2.6-.4 1-.5.3-.1.5-.3.8-.4h.1v.1c-.3.1-.5.3-.8.4-.4.2-.7.4-1 .6zm-77.9.5s0-.1 0 0c-.1-.1-.1-.2 0-.2.6-.4 1.2-.7 1.9-1.1h.1v.1c-.7.4-1.3.8-2 1.2zm125.2.1s-.1 0 0 0c-.1-.1-.1-.2 0-.2.3-.2.5-.3.8-.4.4-.2.8-.5 1.3-.7h.1v.1c-.4.3-.8.5-1.3.7-.3.2-.6.4-.9.5zm21 .1c-.1 0-.1-.1 0 0-.1-.1-.1-.2 0-.2.6-.3 1.2-.6 1.8-1l.3-.2h.1v.1l-.3.2c-.7.4-1.3.8-1.9 1.1zm24.2-.1c-.1-.1-.1-.2 0-.2l.4-.2c.5-.3 1.1-.6 1.6-.9h.1v.1c-.5.3-1.1.6-1.6.9l-.5.3c.1 0 .1 0 0 0zm-194 0c-.1 0-.1 0 0 0-.1-.1-.1-.2 0-.2.6-.3 1.3-.7 1.9-1.1h.1v.1c-.7.5-1.4.8-2 1.2zm-90.6.2c-.1 0-.1-.1 0 0-.1-.1-.1-.2 0-.2l.6-.3c.4-.2.9-.5 1.3-.7h.1v.1c-.4.3-.9.5-1.3.7-.3.1-.5.2-.7.4 0-.1 0 0 0 0zm213.5.1c-.1-.1-.1-.2 0-.2.3-.2.7-.4 1.1-.6s.7-.4 1.1-.6h.1v.1c-.3.2-.7.4-1.1.6-.4.3-.8.5-1.2.7.1 0 .1 0 0 0zm-48.4.1c-.1 0-.1-.1 0 0-.1-.1-.1-.2-.1-.2.5-.3.9-.5 1.4-.8.2-.1.5-.3.7-.4h.1v.1c-.2.1-.5.3-.7.4-.5.3-.9.6-1.4.9zm-98.6 0c-.1-.1-.1-.1-.1-.2.4-.2.7-.4 1.1-.6.3-.1.6-.3.8-.5h.1v.1c-.3.2-.6.3-.8.5-.3.2-.7.4-1.1.7zm-97.3.4s-.1 0-.1-.1v-.2c.3-.2.6-.3.8-.5.4-.2.8-.5 1.2-.7.1 0 .1 0 .2.1 0 .1 0 .1-.1.2-.4.2-.8.4-1.2.7-.2.1-.5.3-.8.5zm174.1 0s-.1 0 0 0c-.1-.1-.1-.2-.1-.2.7-.4 1.4-.8 1.9-1.1h.1v.1c-.7.5-1.3.8-1.9 1.2zm48.7-.1c-.1-.1-.1-.2 0-.2.2-.1.5-.3.7-.4.4-.2.7-.4 1.1-.6h.1v.1c-.4.2-.7.4-1.1.6-.3.3-.5.4-.8.5.1 0 .1 0 0 0zm-77.7.5c-.1 0-.1 0 0 0-.1-.1-.1-.2-.1-.2l.2-.1c.6-.3 1.1-.7 1.7-1h.1v.1c-.6.3-1.1.7-1.7 1zm125.1.2s-.1-.1 0 0c-.1-.1-.1-.2 0-.2.6-.3 1.3-.7 2.1-1.2h.1v.1c-.8.5-1.5.9-2.2 1.3zm21 0c-.1 0-.1 0 0 0-.1-.1-.1-.2 0-.2.7-.3 1.4-.7 2.1-1.2h.1v.1c-.8.6-1.5 1-2.2 1.3zm-169.8-.1c-.1 0-.1 0 0 0-.1-.1-.1-.2 0-.2l1.5-.9.3-.2h.1v.1l-.3.2c-.5.4-1.1.7-1.6 1zm194.1.1s-.1 0-.1-.1 0-.1.1-.2c.7-.4 1.4-.8 2-1.2h.2v.2c-.8.5-1.5 1-2.2 1.3zm-284.8.2s0-.1 0 0c-.1-.1-.1-.2-.1-.2l.6-.3c.5-.3 1-.5 1.4-.8h.2v.2c-.5.3-.9.6-1.4.8-.2 0-.4.1-.7.3.1 0 .1 0 0 0zm165.3 0c-.1 0-.1 0 0 0-.1-.1-.1-.2 0-.2.6-.3 1.3-.7 2-1.1h.1v.1c-.8.5-1.5.9-2.1 1.2zm48.4 0c-.1 0-.1 0 0 0-.1-.1-.1-.2 0-.2.7-.3 1.3-.7 2.1-1.2h.1v.1c-.8.6-1.5 1-2.2 1.3zm-147.1.1s-.1-.1 0 0c-.1-.1-.1-.2 0-.2.7-.3 1.3-.7 1.8-1h.1v.1c-.5.3-1.2.7-1.9 1.1zm-97.2.3c-.1 0-.1 0 0 0-.1-.1-.1-.2-.1-.2.3-.1.6-.3.8-.4.4-.2.7-.4 1.1-.6h.2v.2c-.4.2-.7.4-1.1.6-.3.1-.6.2-.9.4zm174 .1s-.1-.1 0 0c-.1-.1-.1-.2 0-.2.3-.2.6-.3.9-.5.4-.2.8-.4 1.1-.6h.1v.1c-.4.2-.8.4-1.1.6-.4.2-.7.4-1 .6zm48.7 0c-.1 0-.1-.1 0 0-.1-.1-.1-.1-.1-.2.3-.2.6-.4.9-.5.3-.2.6-.3.9-.5h.1v.1c-.3.2-.6.3-.9.5zm-77.8.4c-.1 0-.1 0 0 0-.1-.1-.1-.2-.1-.2.8-.5 1.4-.8 2-1.1h.1v.1c-.6.4-1.2.7-2 1.2zm125.2.2s-.1 0 0 0c-.1-.1-.1-.2-.1-.2l2.1-1.2h.1v.1c-.6.5-1.3.9-2.1 1.3zm-148.8-.1c-.1 0-.1 0 0 0-.1-.1-.1-.2 0-.2l.5-.3c.5-.3.9-.5 1.4-.8h.1v.1c-.4.3-.9.5-1.4.8zm169.8.2c-.1 0-.1-.1 0 0-.1-.1-.1-.2-.1-.2.2-.1.3-.2.5-.3.5-.3 1-.6 1.6-.9.1 0 .1 0 .2.1 0 .1 0 .1-.1.2-.5.3-1.1.6-1.6.9-.1 0-.3.1-.5.2zm24.2-.1s-.1 0-.1-.1v-.2c.3-.2.6-.3.9-.5.4-.2.8-.5 1.2-.7.1 0 .1 0 .2.1 0 .1 0 .1-.1.2-.4.2-.8.4-1.2.7-.2.2-.5.4-.9.5zm-284.7.3s0-.1 0 0c-.1-.1-.1-.2-.1-.2.4-.3.9-.6 1.3-.8.2-.1.5-.3.7-.4h.2v.2c-.2.1-.5.3-.7.4-.5.2-.9.4-1.4.8.1-.1 0 0 0 0zm165.2 0c-.1-.1-.1-.1-.1-.2.4-.3.8-.5 1.2-.7.3-.2.6-.3.9-.5h.1v.1c-.3.2-.6.4-.9.5-.3.3-.7.5-1.2.8.1 0 .1 0 0 0zm48.5 0c-.1 0-.1 0 0 0-.1-.1-.1-.1-.1-.2.6-.4 1.2-.7 1.8-1.1l.3-.2h.1v.1l-.3.2c-.6.5-1.2.8-1.8 1.2zm-147.1.1c-.1 0-.1-.1 0 0-.1-.1-.1-.2-.1-.2.2-.2.5-.3.8-.5s.7-.4 1-.6h.2v.2c-.3.2-.7.4-1.1.7-.3 0-.5.2-.8.4zm-97.2.2s-.1 0 0 0c-.1-.1-.1-.2 0-.2.4-.2.7-.4 1.1-.6.3-.2.5-.3.8-.5h.1v.1c-.3.2-.5.3-.8.5-.4.3-.7.5-1.2.7zm174.1.1c-.1 0-.1 0 0 0-.1-.1-.1-.2-.1-.2l.6-.3c.5-.3.9-.5 1.3-.8h.2v.2c-.4.3-.9.6-1.4.9-.2 0-.4.1-.6.2zm48.6.1s-.1-.1 0 0c-.1-.1-.1-.2-.1-.2.3-.2.5-.3.8-.5s.7-.4 1-.6h.2v.2c-.3.2-.7.4-1 .6-.3.1-.6.3-.9.5zm-77.7.3c-.1 0-.1 0 0 0-.1-.1-.1-.2 0-.2.7-.3 1.4-.7 1.9-1.1h.1v.1c-.6.5-1.3.9-2 1.2zm125.1.2s-.1 0 0 0c-.1-.1-.1-.2 0-.2.7-.4 1.4-.7 2-1.1h.2v.2c-.7.4-1.4.8-2.2 1.1zm-148.8 0s-.1 0 0 0c-.1-.1-.1-.2-.1-.2l.3-.2c.5-.3 1.1-.6 1.6-.9h.2v.2c-.5.4-1.1.7-1.6.9zm169.8.1s-.1 0 0 0c-.1-.1-.1-.2-.1-.2.2-.1.4-.2.5-.3.5-.3 1-.5 1.5-.8h.1v.1c-.5.3-1 .6-1.5.8-.1.2-.3.3-.5.4zm24.3-.1s-.1 0 0 0c-.1-.1-.1-.2 0-.2.7-.3 1.3-.7 2-1.1h.2v.2c-.8.4-1.5.8-2.2 1.1zm-284.7.1c-.1-.1-.1-.2-.1-.2.3-.2.5-.3.8-.4.4-.2.7-.4 1.1-.6h.1v.1c-.4.2-.7.4-1.1.6-.2.2-.5.4-.8.5.1 0 .1 0 0 0zm165.1.2c-.1-.1-.1-.2-.1-.2.3-.2.5-.3.8-.4.4-.2.8-.4 1.2-.7h.2v.2c-.4.3-.8.5-1.3.7-.2.1-.5.2-.8.4zm48.5 0s-.1 0 0 0c-.1-.1-.1-.2-.1-.2.3-.2.5-.3.8-.4.4-.2.8-.4 1.2-.7h.1v.1c-.4.3-.8.5-1.2.7-.2.2-.5.3-.8.5zm-147.2.1c-.1 0-.1-.1 0 0-.1-.1-.1-.2 0-.2.4-.2.9-.4 1.3-.7.2-.1.3-.2.5-.3h.1v.1c-.2.1-.3.2-.5.3-.5.3-1 .6-1.4.8zm-97.1.2c-.1-.1-.1-.2-.1-.2.6-.3 1.2-.7 1.8-.9h.1v.1c-.5.3-1.1.6-1.8 1zm174.1.1c-.1 0-.1 0 0 0-.1-.1-.1-.2-.1-.2.3-.2.6-.4 1-.5.3-.2.6-.3.9-.5h.1v.1c-.3.2-.6.4-1 .5zm48.6 0s-.1 0 0 0c-.1-.1-.1-.2-.1-.2.3-.2.6-.4.9-.5s.6-.3.9-.5h.1v.1c-.3.2-.6.3-.9.5-.2.2-.5.4-.9.6zm-77.7.4c-.1 0-.1 0 0 0-.1-.1-.1-.2-.1-.2.6-.4 1.2-.7 1.9-1h.1v.1c-.7.4-1.3.7-1.9 1.1zm125.1.3s-.1 0 0 0c-.1-.1-.1-.2-.1-.2.6-.5 1.4-.9 2.1-1.2.1 0 .1 0 .2.1 0 .1 0 .1-.1.2-.7.2-1.4.6-2.1 1.1zm-148.9.1c-.1 0-.1 0 0 0-.1-.1-.1-.2-.1-.2.6-.5 1.3-.9 2-1.3.1 0 .1 0 .2.1 0 .1 0 .1-.1.2-.7.3-1.4.6-2 1.2zm169.9 0c-.1 0-.1 0 0 0-.1-.1-.1-.1-.1-.2.6-.5 1.3-.8 2.1-1.3h.1v.1c-.8.6-1.5.9-2.1 1.4zm24.3 0c-.1 0-.1 0 0 0-.1-.1-.1-.2-.1-.2.7-.5 1.4-.9 2.1-1.3h.1v.1c-.7.4-1.4.9-2.1 1.4zm-284.7.1c-.1-.1-.1-.2-.1-.2.1-.1.2-.2.4-.2.5-.3 1-.7 1.6-1 .1 0 .1 0 .1.1s0 .1-.1.1c-.6.3-1.1.6-1.6 1 0 0-.1.1-.3.2zm165.1.1s-.1 0-.1-.1v-.2l.8-.5c.4-.2.8-.5 1.2-.7h.2v.2c-.4.2-.8.5-1.2.7l-.9.6c.1 0 .1 0 0 0zm48.5 0s-.1 0-.1-.1 0-.1.1-.2l.9-.6c.3-.2.7-.5 1.1-.7.1 0 .1 0 .2.1 0 .1 0 .1-.1.2-.4.2-.7.4-1.1.7-.3.2-.6.4-1 .6zm-147.5.2s-.1 0-.1-.1v-.2h.1c.6-.3 1.1-.6 1.6-1.1h.2v.2c-.5.5-1.1.8-1.6 1.1zm-96.9.2s-.1-.1 0 0c-.1-.2-.1-.2 0-.2.6-.3 1.3-.7 1.8-1.2h.2v.2c-.6.5-1.3.8-2 1.2zm174.2 0s-.1 0-.1-.1v-.2c.6-.3 1.3-.7 1.8-1.1h.2v.2c-.5.4-1.1.8-1.9 1.2zm48.7 0s-.1 0-.1-.1v-.2c.2-.1.3-.2.5-.3.4-.2.9-.5 1.2-.8h.2v.2c-.4.4-.8.6-1.3.9-.2.1-.3.2-.5.3zm-77.8.3c-.1 0-.1 0 0 0-.1-.1-.1-.2-.1-.2.2-.1.4-.2.7-.3.4-.2.9-.4 1.2-.8h.2v.2c-.4.4-.8.6-1.3.8-.3.1-.5.2-.7.3zm-23.7.2s-.1-.1 0 0c-.1-.1-.1-.2 0-.2.2-.1.5-.2.7-.3l1.2-.6h.1v.1c-.4.3-.8.4-1.2.6-.3.1-.5.2-.8.4zm148.9 0c-.1 0-.1 0 0 0-.1-.1-.1-.1 0-.2.3-.1.5-.3.8-.4.4-.2.9-.4 1.2-.7h.1v.1c-.4.3-.8.5-1.3.7-.3.2-.5.4-.8.5zm20.9.1c-.1 0-.1-.1 0 0-.1-.1-.1-.1 0-.2l1.8-.9.2-.1h.1v.1l-.2.1c-.6.4-1.3.7-1.9 1zm24.3-.1c-.1 0-.1 0 0 0-.1-.1-.1-.1 0-.2.7-.3 1.4-.6 2-1h.1v.1c-.7.5-1.4.8-2.1 1.1zm-284.7.1c-.1 0-.1 0 0 0-.1-.1-.1-.1 0-.2.3-.2.6-.3.9-.4.4-.2.8-.3 1.1-.6h.1v.1c-.4.2-.8.4-1.1.6-.4.2-.7.4-1 .5zm165.1.2c-.1-.1-.1-.2 0-.2.3-.2.7-.3 1-.5.4-.2.8-.4 1.1-.6h.1v.1c-.4.2-.8.4-1.1.6-.4.2-.7.4-1.1.6zm48.5 0c-.1 0-.1 0 0 0-.1-.1-.1-.1 0-.2.3-.2.7-.4 1.1-.6s.7-.3 1.1-.5h.1v.1c-.3.2-.7.4-1.1.6-.5.2-.9.4-1.2.6zm-70.3.5c-.1-.1-.1-.1-.1-.2.6-.5 1.4-.8 2-1.1h.1v.1c-.6.4-1.3.7-2 1.2zm48.7 0c-.1-.1-.1-.1-.1-.2.5-.4 1-.7 1.8-1h.1v.1c-.7.4-1.3.7-1.8 1.1zm-223 .2s-.1 0 0 0c-.1-.1-.1-.2-.1-.2.4-.4 1-.7 1.5-1l.2-.1c.1 0 .1 0 .2.1 0 .1 0 .1-.1.2l-.2.1c-.5.1-1 .4-1.5.9zm96.8-.2c-.1 0-.1 0 0 0-.1-.1-.1-.2-.1-.2.2-.2.4-.3.6-.5.2-.1.4-.2.5-.4h.2v.2c-.2.2-.4.3-.6.4-.2.2-.4.3-.6.5zm48.4.5s-.1 0-.1-.1v-.2c.2-.1.5-.3.7-.5.4-.2.7-.5 1.1-.7h.2v.2c-.4.2-.7.5-1.1.7-.2.3-.5.4-.8.6zm-23.7.2s-.1 0 0 0c-.1-.1-.1-.2-.1-.2.2-.2.5-.3.7-.5.4-.3.8-.6 1.3-.8h.1v.1c-.4.2-.8.5-1.2.8-.2.2-.5.4-.8.6zm148.9 0s-.1-.1 0 0c-.1-.1-.1-.2 0-.2.4-.2.7-.4 1-.6s.7-.5 1.1-.7h.1v.1c-.4.2-.7.4-1 .6-.4.3-.8.6-1.2.8zm21 0c-.1 0-.1 0 0 0-.1-.1-.1-.2 0-.2.3-.2.7-.4 1-.6s.7-.5 1.1-.7h.1v.1c-.4.2-.7.4-1 .7-.5.3-.8.5-1.2.7zm24.3 0c-.1 0-.1 0 0 0-.1-.1-.1-.2 0-.2.3-.2.7-.4 1-.6s.7-.5 1.1-.7h.1v.1c-.4.2-.7.4-1 .6-.5.4-.8.6-1.2.8zm-284.7.1c-.1 0-.1 0 0 0-.1-.1-.1-.2 0-.2.5-.3 1-.6 1.4-.9.2-.1.4-.3.6-.4h.1v.1c-.2.1-.4.3-.6.4-.5.4-1 .7-1.5 1zm165.2.1c-.1-.1-.1-.2 0-.2.6-.3 1.1-.7 1.7-1l.3-.2h.2v.2l-.3.2c-.7.3-1.2.7-1.9 1zm48.4 0c-.1-.1-.1-.2 0-.2.5-.2.9-.5 1.3-.8.2-.2.5-.3.7-.4h.1v.1c-.2.1-.5.3-.7.4-.4.4-.8.7-1.4.9zm-70.3.4c-.1-.1-.1-.2 0-.2.6-.2 1.3-.6 1.9-1.1h.1v.1c-.6.6-1.3.9-2 1.2.1 0 .1 0 0 0zm48.7 0s-.1 0 0 0c-.1-.1-.1-.2 0-.2.6-.3 1.3-.6 1.8-1h.1v.1c-.6.5-1.2.8-1.9 1.1zm-77.8.4s-.1 0 0 0c-.1-.1-.1-.1 0-.2l.1-.1c.6-.3 1.2-.6 1.8-1h.1v.1c-.6.4-1.2.7-1.9 1zm-145.5-.1s-.1 0 0 0l-.1-.1c.2-.2.4-.3.7-.4s.5-.2.7-.4h.1v.1c-.2.2-.5.4-.8.5-.2 0-.4.1-.6.3zm121.8.3s-.1 0 0 0c-.1-.1-.1-.1 0-.2.4-.3.9-.5 1.3-.7l.6-.3h.1v.1l-.6.3c-.5.3-.9.5-1.4.8zm149-.1s-.1 0 0 0c-.1-.1-.1-.1 0-.2.3-.2.7-.4 1.1-.5.3-.1.6-.3.9-.5h.1v.1c-.3.2-.6.3-.9.5-.5.2-.8.4-1.2.6zm20.9.1c-.1 0-.1 0 0 0-.1-.1-.1-.1 0-.2l1.2-.6c.3-.1.6-.3.9-.4h.1v.1c-.3.1-.6.3-.9.4-.5.3-.9.5-1.3.7zm24.2 0c-.1-.1-.1-.1 0-.2.3-.2.7-.4 1-.5.4-.2.7-.3 1.1-.6h.1v.1c-.3.2-.7.4-1.1.6-.3.2-.7.4-1.1.6.1 0 .1 0 0 0zm-284.6.1c-.1 0-.1 0 0 0-.1-.1-.1-.1 0-.2.3-.1.5-.3.8-.4l1.2-.6h.1v.1l-1.2.6c-.4.2-.6.3-.9.5zm213.6.2c-.1 0-.1 0 0 0-.1-.1-.1-.1-.1-.2.5-.4 1.1-.7 1.7-.9.1-.1.3-.1.4-.2h.1v.1c-.1.1-.3.1-.4.2-.5.3-1.1.6-1.7 1zm-48.5 0c-.1-.1-.1-.1-.1-.2.4-.3.9-.6 1.4-.8l.6-.3h.1v.1l-.6.3c-.4.3-.9.6-1.4.9.1 0 .1 0 0 0zm-21.8.5s-.1 0 0 0c-.1-.1-.1-.2-.1-.2.2-.1.3-.2.5-.3l1.5-.9c.1 0 .1 0 .1.1s0 .1-.1.1c-.5.2-1 .6-1.5.9 0 .1-.2.2-.4.3zm48.7 0s0-.1 0 0c-.1-.1-.1-.2-.1-.2.5-.3 1.1-.8 1.8-1.1h.1v.1zm-77.8.4c-.1-.1-.1-.2 0-.2.5-.2.9-.5 1.4-.8.2-.1.3-.2.5-.3h.1v.1c-.2.1-.3.2-.5.3-.5.3-.9.6-1.5.9.1 0 .1 0 0 0zm125.3.1c-.1 0-.1 0 0 0-.1-.1-.1-.2 0-.2.7-.3 1.3-.7 2-1.2h.1v.1c-.7.6-1.4 1-2.1 1.3zm20.9.1s-.1 0 0 0c-.1-.1-.1-.2-.1-.2.2-.1.4-.2.5-.3l1.5-.9h.1v.1c-.5.4-1 .7-1.5 1-.1.1-.3.2-.5.3zm-169.9-.1c-.1-.1-.1-.2 0-.2.5-.2 1-.5 1.5-.9.1-.1.3-.2.4-.3h.1v.1c-.1.1-.3.2-.4.3-.5.5-1 .8-1.6 1zm194.2.2s-.1 0-.1-.1v-.2c.6-.3 1.2-.7 2-1.2h.2v.2c-.8.5-1.5.9-2.1 1.3zm-284.7 0s-.1 0 0 0c-.1-.1-.1-.2-.1-.2.2-.1.3-.2.5-.3l1.5-.9h.2v.2c-.5.4-1 .7-1.5 1-.2.1-.4.1-.6.2zm213.6.1c-.1 0-.1 0 0 0-.1-.1-.1-.2 0-.2.6-.3 1.3-.7 2.1-1.2h.1v.1c-.8.6-1.5 1-2.2 1.3zm-48.5 0c-.1-.1-.1-.2 0-.2.7-.3 1.4-.7 2.1-1.2h.1v.1c-.7.6-1.4 1-2.2 1.3zm-21.7.4c-.1 0-.1 0 0 0-.1-.1-.1-.2 0-.2.2-.1.5-.3.7-.4.4-.2.8-.4 1.2-.7h.1v.1c-.4.3-.8.5-1.2.7-.3.3-.5.4-.8.5zm48.6 0s-.1 0 0 0c-.1-.1-.1-.1 0-.2l.6-.3c.4-.2.9-.5 1.3-.7h.1v.1c-.4.3-.9.5-1.3.7-.3.2-.5.3-.7.4zm-77.8.5c-.1-.1-.1-.1-.1-.2.4-.2.7-.4 1.1-.6.3-.1.5-.3.8-.4h.1v.1c-.3.2-.5.3-.8.4-.3.2-.7.4-1.1.7.1 0 .1 0 0 0zm125.2.2c-.1-.1-.1-.2-.1-.2.7-.4 1.3-.8 2.1-1.2h.2v.2c-.8.4-1.4.8-2.2 1.2.1 0 .1 0 0 0zm21 .1c-.1 0-.1 0 0 0-.1-.1-.1-.2-.1-.2.7-.5 1.4-.9 2-1.2h.2v.2c-.7.3-1.4.7-2.1 1.2zm24.3 0c-.1 0-.1-.1 0 0-.1-.1-.1-.2-.1-.2.5-.3 1.1-.6 1.6-.9l.5-.3h.2v.2l-.5.3c-.6.2-1.2.5-1.7.9 0-.1 0 0 0 0zm-194.1-.2c-.1 0-.1 0 0 0-.1-.1-.1-.2 0-.2.2-.1.5-.3.7-.4.4-.2.8-.5 1.2-.6.1 0 .1 0 .1.1s0 .1-.1.1l-1.2.6c-.2.1-.4.3-.7.4zm-90.6.2c-.1-.1-.1-.2-.1-.2.3-.2.6-.4 1-.6.3-.2.7-.4 1-.6h.2v.2c-.3.2-.7.4-1 .6-.4.2-.7.4-1.1.6zm-32-.1s-.1-.1 0 0c-.1-.1-.1-.2-.1-.2.4-.2.8-.5 1.2-.7l.4-.2h.2v.2l-.5.2c-.3.2-.7.4-1.2.7zm245.6.3c-.1 0-.1 0 0 0-.1-.1-.1-.2 0-.2.3-.1.5-.3.8-.5.4-.3.8-.5 1.3-.7h.1v.1c-.4.2-.9.5-1.3.7-.4.3-.6.4-.9.6zm-48.5 0c-.1-.1-.1-.2-.1-.2.1-.1.3-.2.4-.3.5-.3 1.1-.7 1.6-.9h.1v.1c-.6.3-1.1.6-1.6.9 0 .2-.2.3-.4.4zm-21.7.4c-.1 0-.1 0 0 0-.1-.1-.1-.2 0-.2.4-.2.9-.5 1.3-.7.2-.1.5-.3.7-.4h.1v.1c-.2.1-.5.3-.7.4-.5.3-.9.5-1.4.8zm48.6 0c-.1-.1-.1-.2-.1-.2.2-.1.3-.2.5-.3.4-.2.9-.5 1.3-.8h.2v.2c-.4.3-.9.6-1.3.8-.2.1-.3.2-.6.3.1 0 .1 0 0 0zm-77.7.4c-.1 0-.1 0 0 0-.1-.1-.1-.2 0-.2.8-.4 1.3-.7 1.9-1.1h.1v.1c-.7.5-1.2.8-2 1.2zm125.1.2c-.1-.1-.1-.2-.1-.2.2-.1.5-.3.7-.4.5-.2.9-.5 1.4-.8h.2v.2c-.4.3-.9.6-1.4.8-.2.1-.5.3-.8.4.1 0 .1 0 0 0zm-148.9 0c-.1-.1-.1-.2-.1-.2l.6-.3c.4-.2.9-.5 1.3-.8h.2v.2c-.4.3-.9.5-1.3.8-.2.1-.4.2-.7.3zm194.1.1s0-.1 0 0c-.1-.1-.1-.2-.1-.2.3-.2.6-.3.9-.5.4-.2.8-.4 1.2-.7h.2v.2c-.4.2-.8.5-1.2.7-.3.1-.6.3-1 .5.1 0 .1 0 0 0zm-24.2 0c-.1 0-.1 0 0 0-.1-.1-.1-.2-.1-.2.3-.2.6-.4.9-.5.4-.2.8-.4 1.1-.7h.1v.1c-.4.2-.8.5-1.2.7-.2.2-.5.4-.8.6zm-260.4 0s-.1 0-.1-.1 0-.1.1-.1c.5-.2.9-.5 1.4-.7l.6-.3h.2v.2l-.6.3c-.6.2-1.1.5-1.6.7zm165.1.3c-.1 0-.1 0 0 0-.1-.1-.1-.2-.1-.2.5-.3 1-.6 1.5-.8l.6-.3h.1v.1c-.2.1-.4.2-.7.3-.4.3-.9.5-1.4.9zm48.5-.1c-.1 0-.1 0 0 0-.1-.1-.1-.2-.1-.2.4-.2.8-.5 1.3-.7.3-.1.6-.3.8-.5h.1v.1c-.3.2-.5.3-.8.5-.4.3-.8.5-1.3.8zm-70.2.5c-.1 0-.1 0 0 0-.1-.1-.1-.2-.1-.2l1.5-.9c.2-.1.3-.2.5-.3h.2v.2c-.2.1-.3.2-.5.3-.6.3-1.1.5-1.6.9zm48.6-.1c-.1-.1-.1-.2-.1-.2.3-.2.7-.4 1-.6.3-.1.5-.3.8-.4h.2v.2c-.3.2-.5.3-.8.4-.3.2-.7.4-1.1.6.1 0 .1 0 0 0zm-77.8.5s0-.1 0 0c-.1-.1-.1-.2 0-.2.4-.2.8-.5 1.2-.7.2-.1.5-.3.7-.4h.1v.1c-.2.1-.5.3-.7.4-.4.3-.8.5-1.3.8zm125.3.1s-.1 0-.1-.1v-.2c.7-.4 1.4-.8 2-1.2h.2v.2c-.7.5-1.4.9-2.1 1.3zm21.6-.3s-.1 0-.1-.1v-.2c.4-.2.8-.5 1.3-.8h.2v.2c-.5.4-.9.7-1.4.9.1 0 .1 0 0 0zm-170.5.3s-.1 0-.1-.1 0-.1.1-.2c.4-.2.9-.5 1.3-.7.2-.1.4-.3.6-.4h.2v.2c-.2.1-.4.2-.6.4-.6.3-1 .6-1.5.8zm194 .1c-.1-.1-.1-.2 0-.2l2.1-1.2h.1v.1c-.7.5-1.4.9-2.2 1.3.1 0 .1 0 0 0zm-284.6.1c-.1-.1-.1-.2 0-.2.5-.2 1-.5 1.4-.8l.6-.3h.1v.1l-.6.3c-.5.4-.9.6-1.5.9zm165.8-.2s-.1 0-.1-.1 0-.1.1-.2c.3-.1.6-.3.8-.4s.3-.2.5-.3c.1 0 .1 0 .2.1 0 .1 0 .1-.1.2-.2.1-.3.2-.5.3s-.5.2-.9.4zm47.9.3c-.1 0-.1 0 0 0-.1-.1-.1-.2-.1-.2.6-.3 1.2-.6 2-1.1h.2v.2c-.9.4-1.5.8-2.1 1.1zm-70.3.4c-.1 0-.1 0 0 0-.1-.1-.1-.2-.1-.2.3-.2.6-.4 1-.5.3-.2.7-.4 1-.6h.1v.1c-.3.2-.7.4-1.1.6-.2.3-.6.4-.9.6zm48.6 0s-.1 0 0 0c-.1-.1-.1-.2-.1-.2.2-.1.4-.2.7-.4.4-.2.8-.4 1.1-.6h.1v.1c-.4.2-.8.4-1.1.6-.2.3-.4.4-.7.5zm-77.8.5s0-.1 0 0c-.1-.1-.1-.2-.1-.2.6-.3 1.2-.7 1.8-1l.2-.1h.1v.1l-.2.1c-.5.4-1.1.7-1.8 1.1zm125.2.2s-.1 0 0 0c-.1-.1-.1-.2 0-.2l.3-.2c.6-.4 1.2-.7 1.9-1h.1v.1c-.6.3-1.3.7-1.9 1zm-148.9-.1c-.1-.1-.1-.2-.1-.2.4-.3.9-.5 1.3-.8l.6-.3h.2v.2l-.6.3c-.4.3-.9.5-1.4.8.1 0 .1 0 0 0zm194.1.1c-.1-.1-.1-.2 0-.2.2-.1.4-.2.6-.4.5-.3.9-.5 1.4-.8h.1v.1c-.5.2-1 .5-1.4.8-.2.3-.4.4-.7.5.1 0 .1 0 0 0zm-284.5.1c-.1 0-.1 0 0 0-.1-.1-.1-.2-.1-.2.3-.2.6-.4 1-.6.3-.2.6-.4 1-.6h.1v.1c-.3.2-.6.4-1 .6-.4.3-.7.5-1 .7zm213.5.2c-.1 0-.1 0 0 0-.1-.1-.1-.2-.1-.2.2-.1.5-.3.7-.4.4-.3.9-.6 1.4-.8h.1v.1c-.5.2-.9.5-1.4.8-.2.2-.5.4-.7.5zm-70.2.4c-.1 0-.1 0 0 0-.1-.1-.1-.2 0-.2l1.5-.9c.2-.1.4-.2.5-.3h.1v.1c-.2.1-.4.2-.5.3-.6.4-1.1.7-1.6 1zm48.6 0s-.1 0 0 0c-.1-.1-.1-.2 0-.2.4-.2.8-.4 1.1-.7.2-.1.4-.3.6-.4h.1v.1c-.2.1-.4.3-.6.4-.4.4-.7.6-1.2.8zm-77.7.4s-.1 0-.1-.1 0-.1.1-.2c.6-.3 1.2-.6 1.8-1h.2v.2c-.7.4-1.4.8-2 1.1zm125.2.2c-.1-.1-.1-.2-.1-.2.3-.2.6-.3.9-.5.4-.2.8-.4 1.2-.7h.2v.2c-.4.3-.8.5-1.2.7-.3.2-.6.3-1 .5.1 0 .1 0 0 0zm-148.9 0c-.1 0-.1-.1 0 0-.1-.1-.1-.2 0-.2l.6-.3c.5-.2.9-.5 1.3-.8h.1v.1c-.4.3-.9.6-1.4.8-.2.1-.4.2-.6.4zm194.1 0c-.1-.1-.1-.1 0-.2.3-.2.6-.3.9-.5.4-.2.7-.4 1.1-.6h.1v.1c-.3.2-.7.4-1.1.6-.3.2-.6.4-1 .6zm-284.7.1c-.1-.1-.1-.2 0-.2.2-.1.3-.2.5-.2.5-.2 1-.5 1.5-.8h.1v.1c-.5.3-1 .6-1.5.8zm213.7.1c-.1 0-.1 0 0 0-.1-.1-.1-.2 0-.2.3-.2.7-.4 1-.5.4-.2.7-.4 1.1-.6h.1v.1c-.4.2-.7.4-1.1.6-.4.3-.8.4-1.1.6zm-70.2.4s-.1 0-.1-.1v-.2c.4-.3.9-.5 1.4-.8.2-.1.5-.2.7-.4h.2v.2c-.2.1-.5.3-.7.4-.5.4-1 .7-1.5.9zm48.5.1c-.1-.1-.1-.2 0-.2.2-.1.5-.2.7-.4.3-.2.7-.4 1.1-.6h.1v.1c-.4.2-.7.4-1.1.6-.3.2-.5.3-.8.5zm47.6.5c-.1-.1-.1-.2-.1-.2.3-.2.6-.4 1-.6s.8-.5 1.2-.7h.1v.1c-.4.2-.8.4-1.2.7-.3.4-.6.6-1 .7.1 0 .1 0 0 0zm-125.3-.1c-.1 0-.1 0 0 0-.1-.1-.1-.2-.1-.2.7-.4 1.4-.8 1.9-1.1h.2v.2c-.6.3-1.3.7-2 1.1zm170.4.3s-.1 0-.1-.1v-.2c.3-.2.5-.3.8-.5.4-.3.9-.5 1.4-.8.1 0 .1 0 .2.1 0 .1 0 .1-.1.2-.5.2-.9.5-1.3.8-.3.2-.6.3-.9.5zm-194.1-.1c-.1 0-.1 0 0 0-.1-.1-.1-.2 0-.2.3-.2.7-.4 1-.6s.6-.4 1-.6h.1v.1c-.3.2-.7.4-1 .6-.4.3-.8.5-1.1.7zm-90.5.2s-.1 0-.1-.1v-.2c.6-.4 1.3-.8 2-1.2h.2v.2c-.8.5-1.4.9-2.1 1.3zm213.5.1s-.1 0 0 0c-.1-.1-.1-.2 0-.2.4-.2.8-.5 1.2-.7.3-.2.6-.4.9-.5h.1v.1c-.3.2-.6.4-.9.5-.4.3-.8.6-1.3.8zm-69.9.3s-.1 0 0 0c-.1-.1-.1-.2-.1-.2.8-.4 1.5-.9 2.2-1.3h.1v.1c-.7.5-1.4.9-2.2 1.4zm48.4.1c-.1 0-.1 0 0 0-.1-.1-.1-.2-.1-.2.2-.2.5-.3.8-.4.3-.2.7-.4 1-.6h.1v.1c-.3.2-.7.4-1 .6s-.5.4-.8.5zm47.9.4c-.1-.1-.1-.2 0-.2.7-.4 1.5-.8 2.2-1.2h.1v.1c-.7.5-1.5.9-2.3 1.3.1 0 .1 0 0 0zm45 .1s-.1 0-.1-.1 0-.1.1-.1c.5-.2 1-.5 1.4-.8.3-.2.5-.3.8-.4h.2v.2c-.3.1-.5.3-.8.4-.6.3-1.1.6-1.6.8zm-170.8 0c-.1-.1-.1-.2 0-.2.1-.1.3-.2.4-.2.5-.3 1.1-.6 1.6-.9h.1v.1c-.5.3-1.1.6-1.6.9-.1.1-.3.2-.5.3zm-113.8.1s-.1 0-.1-.1 0-.1.1-.2c.4-.2.8-.4 1.3-.7.3-.1.5-.3.8-.4.1 0 .1 0 .2.1 0 .1 0 .1-.1.2-.3.1-.5.3-.8.4-.5.3-.9.5-1.4.7zm90.2 0c-.1 0-.1 0 0 0-.1-.1-.1-.2 0-.2.4-.2.9-.5 1.3-.7.2-.1.4-.2.6-.4h.1v.1c-.2.1-.4.2-.6.4-.5.3-1 .6-1.4.8zm53.7.2s-.1 0 0 0c-.1-.1-.1-.1 0-.2.7-.4 1.4-.8 2.2-1.2h.1v.1c-.8.6-1.6 1-2.3 1.3zm69.3.1s0-.1 0 0c-.1-.1-.1-.2 0-.2l.6-.3c.5-.3 1-.5 1.5-.8h.1v.1c-.5.3-1 .6-1.5.8-.2.1-.4.2-.7.4zm27.1.3s-.1 0-.1-.1 0-.1.1-.2c.3-.1.5-.3.8-.4.4-.2.9-.5 1.3-.7.1 0 .1 0 .2.1 0 .1 0 .1-.1.2-.4.2-.9.4-1.3.7-.3.1-.5.2-.9.4.1 0 .1 0 0 0zm45 .2c-.1 0-.1 0 0 0-.1-.1-.1-.2-.1-.2.7-.4 1.4-.8 2-1.1h.1v.1c-.6.4-1.3.8-2 1.2zm-284.7.2s-.1-.1 0 0c-.1-.1-.1-.2-.1-.2.4-.3.9-.5 1.3-.8.2-.1.4-.2.7-.4h.2v.2c-.2.1-.4.2-.7.4-.4.2-.9.5-1.4.8zm191-.3c-.1-.1-.1-.1 0-.2.3-.2.7-.4 1-.6.3-.1.5-.3.8-.4h.1v.1c-.3.1-.5.3-.8.4-.3.3-.7.5-1.1.7zm-77.7.4c-.1-.1-.1-.1 0-.1.8-.5 1.4-.9 2.1-1.2h.1v.1c-.7.3-1.4.7-2.2 1.2zm30.9-.1s-.1 0-.1-.1v-.2c.6-.3 1.3-.7 2.1-1.2h.2v.2c-.9.6-1.5 1-2.2 1.3zm-54.6.3c-.1 0-.1 0 0 0-.1-.1-.1-.2-.1-.2.3-.2.5-.3.8-.5.4-.2.7-.4 1.1-.6h.1v.1c-.4.2-.7.4-1.1.6-.2.3-.5.5-.8.6zm151.2.1s-.1 0 0 0c-.1-.1-.1-.2-.1-.2.4-.3.9-.5 1.3-.8.2-.1.5-.3.7-.4h.2v.2c-.2.1-.5.3-.7.4-.5.3-.9.5-1.4.8zm-28.1.2c-.1-.1-.1-.2-.1-.2.4-.2.7-.4 1.1-.6.3-.2.7-.4 1-.6h.1v.1c-.3.2-.7.4-1 .6-.3.3-.7.5-1.1.7zm72.8.1s-.1 0-.1-.1v-.2c.3-.2.7-.4 1-.6.4-.2.7-.4 1.1-.6h.2v.2c-.4.2-.7.4-1.1.6-.3.3-.7.5-1.1.7.1 0 .1 0 0 0zm-284.7.1s-.1 0-.1-.1 0-.1.1-.2c.4-.2.9-.4 1.3-.7.3-.2.5-.3.8-.5.1 0 .1 0 .2.1 0 .1 0 .1-.1.2-.3.1-.5.3-.8.5-.4.2-.8.5-1.4.7.1 0 .1 0 0 0zm144.4 0s-.1 0-.1-.1 0-.1.1-.2c.4-.2.8-.4 1.2-.7.3-.2.5-.3.8-.5h.2v.2c-.3.1-.5.3-.8.5-.5.3-.9.6-1.4.8zm96.6.3s-.1 0-.1-.1 0-.1.1-.2c.4-.2.9-.4 1.3-.7.3-.2.5-.3.8-.5h.2v.2c-.3.1-.5.3-.8.4-.6.5-1 .7-1.5.9zm-50.8 0s-.1 0 0 0c-.1-.1-.1-.2 0-.2.6-.3 1.2-.6 1.8-1h.2v.2c-.7.3-1.3.7-2 1zm-77.4.2s-.1-.1 0 0c-.1-.1-.1-.1 0-.2.6-.3 1.3-.7 2-1.1h.1v.1zm173 .1s-.1 0 0 0c-.1-.1-.1-.2-.1-.2l.2-.1c.6-.3 1.2-.6 1.8-1h.2v.2c-.6.4-1.2.7-1.8 1zm-284.7.1s-.1 0-.1-.1 0-.1.1-.1c.5-.2.9-.5 1.4-.7.2-.1.4-.2.5-.3h.2v.2c-.2.1-.4.2-.5.3-.6.2-1 .5-1.6.7.1-.1 0 0 0 0zm144.5-.1s-.1 0-.1-.1 0-.1.1-.2l1.2-.6c.2-.1.5-.3.8-.4.1 0 .1 0 .2.1 0 .1 0 .1-.1.2-.3.1-.5.3-.7.4-.5.2-.9.4-1.4.6zm66.6.4c-.1 0-.1-.1 0 0-.1-.1-.1-.2-.1-.2.6-.3 1.2-.7 1.9-1l.4-.2h.1v.1l-.4.2c-.7.4-1.3.7-1.9 1.1zm-123.4-.1c-.1 0-.1-.1 0 0-.1-.1-.1-.2-.1-.2.3-.1.5-.3.8-.4.4-.2.8-.4 1.1-.6h.1v.1l-1.2.6c-.1.2-.4.3-.7.5zm153.6.1s-.1 0 0 0c-.1-.1-.1-.2 0-.2.2-.1.5-.2.7-.4l1.2-.6h.1v.1l-1.2.6c-.3.2-.5.4-.8.5zm-95.7.3s-.1 0-.1-.1 0-.1.1-.2c.3-.2.7-.4 1-.6s.6-.3.9-.5c.1 0 .1 0 .2.1 0 .1 0 .1-.1.2-.3.1-.6.3-.9.5s-.7.4-1.1.6zm140.4 0s-.1 0 0 0c-.1-.1-.1-.2-.1-.2.2-.1.4-.2.6-.4.4-.2.8-.5 1.3-.7.1 0 .1 0 .1.1s0 .1-.1.1c-.4.2-.9.4-1.3.7 0 .2-.2.3-.5.4zm-284.8.1s-.1 0 0 0c-.1-.1-.1-.2-.1-.2.5-.3 1-.6 1.6-.9l.2-.1h.2v.2l-.2.1c-.6.3-1.1.6-1.7.9zm110.8.2c-.1-.1-.1-.1 0-.2.3-.2.6-.3.8-.5.4-.3.9-.5 1.3-.7h.1v.1c-.5.2-.9.5-1.3.7-.3.3-.6.5-.9.6zm77.1 0c-.1-.1-.1-.2-.1-.2.3-.2.5-.3.8-.5s.7-.4 1-.6h.2v.2c-.3.2-.7.4-1 .6s-.5.4-.9.5c.1 0 .1 0 0 0zm53.3.1s-.1 0-.1-.1v-.2c.2-.1.5-.3.7-.4.4-.2.7-.4 1.1-.6h.2v.2c-.4.2-.7.4-1.1.6-.2.2-.5.4-.8.5.1 0 .1 0 0 0zm-271-.4c-.1-.1-.1-.2 0-.2.2-.1.4-.2.5-.3.2-.1.4-.2.5-.3 0 0 .1 0 .1.1 0 0 0 .1-.1.1-.2.1-.4.2-.5.3 0 .1-.2.2-.5.3.1 0 .1 0 0 0zm175.3.7s-.1 0-.1-.1 0-.1.1-.2c.7-.3 1.3-.7 1.9-1.1h.2v.2c-.7.5-1.3.9-2.1 1.2.1 0 .1 0 0 0zm-173.7-.2s-.1 0-.1-.1 0-.1.1-.1l.6-.3c.3-.2.6-.4.9-.4.1 0 .1 0 .1.1s0 .1-.1.1c-.3 0-.6.2-.8.4-.2 0-.4.2-.7.3zm29.2.3s-.1 0-.1-.1 0-.1.1-.2c.5-.2.9-.5 1.3-.7.2-.1.4-.3.6-.4h.2v.2c-.2.1-.4.2-.6.4-.5.3-1 .6-1.5.8zm209.5 0c-.1-.1-.1-.2-.1-.2l.6-.3c.4-.3.9-.5 1.4-.8h.1v.1c-.4.3-.9.5-1.4.8-.1.2-.3.3-.6.4.1 0 .1 0 0 0zm75.4-.1s-.1 0 0 0c-.1-.1-.1-.2 0-.2.4-.2.7-.4 1.1-.6.3-.2.5-.3.8-.4h.1v.1c-.3.1-.5.3-.8.4-.4.3-.8.6-1.2.7zm-199.4.2s-.1 0-.1-.1 0-.1.1-.1c.6-.3 1.2-.7 1.8-1l.1-.1h.2v.2l-.1.1c-.8.3-1.4.7-2 1zm-29.5-.5s-.1 0-.1-.1 0-.1.1-.2c.2-.1.5-.3.7-.4.1-.1.3-.1.4-.2h.2v.2c-.1.1-.3.1-.4.2-.4.2-.6.3-.9.5zm1.4.4s-.1 0 0 0c-.1-.1-.1-.2 0-.2.2-.1.5-.2.7-.4.3-.2.6-.4 1-.5.1 0 .1 0 .1.1s0 .1-.1.1c-.3.1-.6.3-.9.4-.3.3-.5.4-.8.5zm183.9.3s-.1 0-.1-.1v-.2c.4-.2.7-.4 1.1-.6.2-.1.5-.3.7-.4h.2v.2c-.2.1-.5.3-.7.4-.4.3-.8.5-1.2.7zm-269.1-.1s-.1 0 0 0c-.1-.1-.1-.2 0-.2.6-.3 1.1-.6 1.6-.9h.1v.1c-.6.4-1.1.7-1.7 1zm138.2.4s-.1-.1 0 0c-.1-.1-.1-.2-.1-.2.3-.2.6-.3.9-.5.4-.2.8-.4 1.2-.7h.2v.2c-.4.2-.8.5-1.2.7-.4.1-.7.3-1 .5zm35.3 0s-.1 0-.1-.1 0-.1.1-.1c.4-.2.9-.4 1.3-.7.2-.1.4-.2.6-.4h.2v.2c-.2.1-.4.2-.6.4-.6.2-1 .5-1.5.7zm140.3 0s-.1 0-.1-.1v-.2c.5-.3 1.1-.6 1.7-.9h.2v.2c-.7.4-1.2.7-1.8 1zm-284.9.1c-.1 0-.1 0 0 0-.1-.1-.1-.2 0-.2.4-.2.9-.5 1.3-.7l.6-.3h.1v.1l-.6.3c-.5.3-.9.6-1.4.8zm57.5-.1s-.1 0 0 0c-.1-.1-.1-.2 0-.2.3-.1.6-.3.9-.5s.6-.3.9-.5c.1 0 .1 0 .1.1s0 .1-.1.1c-.3.1-.6.3-.9.5-.2.2-.5.4-.9.5zm128.3.2s-.1 0 0 0c-.1-.1-.1-.2-.1-.2.3-.2.5-.3.8-.4.4-.2.7-.4 1-.6h.1v.1c-.3.2-.7.4-1.1.6-.1.2-.4.4-.7.5zm-213.5 0s-.1 0-.1-.1 0-.1.1-.1c.3-.2.7-.3 1-.5s.5-.3.8-.4c.1 0 .1 0 .2.1 0 .1 0 .1-.1.2-.3.1-.5.3-.8.4-.4.1-.7.3-1.1.4zm236.7.2s-.1 0 0 0c-.1-.1-.1-.2-.1-.2.4-.2.7-.5 1.1-.7.3-.1.6-.3.8-.5h.2v.2c-.3.2-.6.3-.8.5-.4.3-.8.5-1.2.7zm32.3.1s-.1-.1 0 0c-.1-.1-.1-.2-.1-.2.3-.1.5-.3.8-.4.4-.2.7-.4 1.1-.6.1 0 .1 0 .1.1s0 .1-.1.1c-.4.2-.7.4-1.1.6-.1 0-.4.2-.7.4zm-95.6.2c-.1 0-.1 0-.1-.1s0-.1.1-.2c.4-.1.8-.3 1.1-.6.3-.2.6-.3.8-.5.1 0 .1 0 .2.1 0 .1 0 .1-.1.2-.3.1-.6.3-.8.5zm-87.2.2s0-.1 0 0c-.1-.1-.1-.2-.1-.2.4-.3.8-.5 1.3-.7.3-.1.5-.3.8-.4h.2v.2c-.3.1-.5.3-.8.4-.5.2-.9.4-1.4.7.1 0 .1 0 0 0zm25.9-.1c-.1 0-.1 0 0 0-.1-.1-.1-.2-.1-.2l.6-.3c.4-.3.9-.5 1.4-.8h.2v.2c-.4.3-.9.5-1.4.8-.3.1-.5.2-.7.3zm25.6 0s-.1 0 0 0c-.1-.1-.1-.2 0-.2.3-.2.6-.3.9-.5.4-.2.8-.4 1.2-.7h.1v.1c-.4.2-.8.4-1.2.7s-.7.5-1 .6zm175.9 0s-.1 0-.1-.1 0-.1.1-.1l1.2-.6c.2-.1.5-.3.8-.4h.2v.2c-.3.1-.5.3-.7.4-.6.2-1 .4-1.5.6zm-284.9.1s-.1 0-.1-.1 0-.1.1-.1c.4-.1.7-.4 1.1-.6.3-.2.6-.4.9-.5.1 0 .1 0 .2.1 0 .1 0 .1-.1.2-.3.1-.6.3-.9.5-.4.1-.8.3-1.2.5zm-27.7.1s-.1 0-.1-.1 0-.1.1-.2c.3-.1.6-.3.8-.5.4-.2.8-.5 1.3-.7.1 0 .1 0 .2.1 0 .1 0 .1-.1.2l-1.2.6c-.4.3-.6.4-1 .6zm269.1.1s-.1 0-.1-.1 0-.1.1-.1c.3-.1.6-.3.9-.5s.7-.4 1-.6c.1 0 .1 0 .1.1s0 .1-.1.1c-.3.1-.7.3-1 .5-.3.3-.6.5-.9.6zm-32.6.1s-.1 0-.1-.1v-.2c.6-.4 1.3-.7 1.8-1h.2v.2c-.6.4-1.2.8-1.9 1.1zm-62.9.2c-.1 0-.1 0 0 0-.1-.1-.1-.2-.1-.2.6-.3 1.2-.7 1.9-1.1h.2v.2c-.8.4-1.4.8-2 1.1zm140.1.1s-.1 0-.1-.1 0-.1.1-.1c.3-.1.7-.3 1-.5s.6-.4.9-.5c.1 0 .1 0 .1.1s0 .1-.1.1c-.3.1-.6.3-.9.5-.3.1-.6.3-1 .5zm-284.8.1s-.1 0-.1-.1v-.2c.3-.1.5-.3.8-.4.4-.2.8-.5 1.2-.7.1 0 .1 0 .2.1 0 .1 0 .1-.1.2-.4.2-.8.4-1.2.7-.3.1-.5.2-.8.4zm57.4 0c-.1 0-.1 0 0 0-.1-.1-.1-.2 0-.2.4-.2.8-.4 1.2-.7.3-.2.6-.3.8-.5h.1v.1c-.3.2-.6.3-.8.5-.5.4-.9.6-1.3.8zm51.4 0s-.1 0 0 0c-.1-.1-.1-.2-.1-.2l.4-.3 1.5-.9h.1v.1l-1.5.9zm74.9 0s-.1-.1 0 0c-.1-.1-.1-.1-.1-.2.3-.2.5-.3.8-.5s.6-.3.9-.5h.1v.1c-.3.2-.6.4-.9.5-.2.2-.5.4-.8.6 0-.1 0 0 0 0zm-211.5.1s-.1 0 0 0c-.1-.1-.1-.2-.1-.2.6-.4 1.3-.7 1.9-1.1h.2v.2c-.7.4-1.3.7-2 1.1zm269.1.2s-.1 0-.1-.1v-.2c.6-.3 1.3-.7 1.8-1.1h.2v.2c-.6.4-1.2.8-1.9 1.2zm-95.4.1s-.1 0 0 0c-.1-.1-.1-.2-.1-.2l.6-.3c.4-.2.8-.5 1.3-.7h.1v.1c-.4.2-.8.5-1.2.7-.3.2-.5.3-.7.4zm62.7 0s-.1 0-.1-.1v-.2l.4-.3c.4-.3.9-.5 1.3-.8h.2v.2c-.4.3-.9.5-1.3.8l-.5.4c.1 0 .1 0 0 0zm-126.4.2s-.1 0 0 0c-.1-.1-.1-.2 0-.2.3-.1.5-.3.8-.5.4-.2.8-.5 1.2-.7h.1v.1c-.4.2-.8.4-1.2.7-.3.3-.6.4-.9.6zm203.7 0s-.1 0-.1-.1 0-.1.1-.2c.3-.2.7-.4 1-.6s.6-.3.8-.5c.1 0 .1 0 .2.1 0 .1 0 .1-.1.2-.3.1-.6.3-.8.5-.4.2-.7.4-1.1.6zm-284.9.1c-.1 0-.1 0-.1-.1s0-.1.1-.2c.4-.1.8-.3 1.1-.6.3-.2.6-.4.9-.5.1 0 .1 0 .2.1 0 .1 0 .1-.1.2-.3.1-.6.3-.9.5-.4.2-.8.5-1.2.6zm108.9 0c-.1-.1-.1-.2 0-.2.6-.3 1.2-.7 2-1.1h.1v.1c-.8.6-1.5.9-2.1 1.2zm-51.9.3s0-.1 0 0c-.1-.1-.1-.2 0-.2.6-.3 1.3-.7 2-1.2h.1v.1c-.7.5-1.4.9-2.1 1.3.1 0 .1 0 0 0zm-85 0s-.1 0 0 0c-.1-.1-.1-.2-.1-.2.4-.2.8-.5 1.2-.7.3-.1.5-.3.8-.4h.2v.2c-.3.1-.5.3-.8.4-.4.2-.8.5-1.3.7zm269.1-.1s-.1 0-.1-.1 0-.1.1-.1c.3-.1.7-.3 1-.5s.7-.4 1-.5c.1 0 .1 0 .1.1s0 .1-.1.1c-.3.1-.7.3-1 .5-.2.2-.6.4-1 .5zm-95.3.2s-.1 0-.1-.1 0-.1.1-.1c.7-.3 1.3-.7 1.9-1.1l.1.2c-.6.4-1.2.8-2 1.1zm62.9 0s-.1 0-.1-.1 0-.1.1-.1c.4-.2.8-.4 1.1-.6.2-.1.5-.3.7-.4h.2v.2c-.2.1-.5.2-.7.4-.5.2-.9.4-1.3.6zm-26 .1c-.1 0-.1 0 0 0-.1-.1-.1-.2 0-.2.5-.3 1.1-.6 1.8-.9h.1v.1c-.8.5-1.4.8-1.9 1zm103.3 0c-.1-.1-.1-.2 0-.2.6-.3 1.3-.7 1.8-1h.1v.1c-.5.5-1.2.8-1.9 1.1zm-284.9.2s-.1 0 0 0c-.1-.1-.1-.2 0-.2.3-.2.6-.3.9-.5s.7-.4 1-.5h.1c0 .1 0 .1-.1.1-.3.2-.7.4-1 .5-.2.2-.5.4-.9.6zm108.9 0c-.1-.1-.1-.2 0-.2l.5-.3c.5-.2.9-.5 1.4-.8h.1v.1c-.5.3-.9.5-1.4.8zm132.1.2c-.1-.1-.1-.2 0-.2.4-.2.9-.5 1.3-.7.2-.1.5-.3.7-.4h.1v.1c-.2.1-.5.2-.7.4-.4.3-.9.6-1.4.8.1 0 .1 0 0 0zm-269.4.4c-.1 0-.1 0 0 0-.1-.1-.1-.2-.1-.2.4-.2.8-.4 1.1-.6s.7-.4 1-.6h.2v.2c-.3.2-.7.4-1 .6-.4.1-.8.4-1.2.6zm85 0s-.1 0 0 0c-.1-.1-.1-.2-.1-.2.4-.3.8-.5 1.2-.7.3-.2.6-.3.9-.5h.1v.1c-.3.2-.6.3-.9.5-.4.3-.8.5-1.2.8zm23.5-.1c-.1 0-.1 0 0 0-.1-.1-.1-.1-.1-.2l1.5-.9c.1-.1.3-.1.4-.2h.1v.1c-.1.1-.3.1-.4.2-.5.4-1 .6-1.5 1zm65.8-.1c-.1-.1-.1-.2-.1-.2l.6-.3c.5-.3.9-.5 1.4-.7.1 0 .1 0 .1.1s0 .1-.1.1c-.5.2-.9.4-1.4.7 0 .1-.2.2-.5.3.1 0 .1 0 0 0zm62.9 0s-.1-.1 0 0c-.1-.1-.1-.2-.1-.2l1.5-.9.2-.1h.1v.1l-.2.1c-.4.4-.9.7-1.5 1zm77.1.2c-.1-.1-.1-.2-.1-.2.2-.1.3-.2.5-.3.5-.3.9-.5 1.4-.8.1 0 .1 0 .2.1 0 .1 0 .1-.1.2-.5.2-.9.5-1.4.8-.1 0-.2.1-.5.2.1 0 .1 0 0 0zm-284.8.1s-.1 0 0 0c-.1-.1-.1-.2-.1-.2.6-.4 1.3-.8 1.9-1.1h.1v.1c-.6.5-1.2.8-1.9 1.2zm108.8.1s-.1 0 0 0c-.1-.1-.1-.2-.1-.2.2-.1.4-.2.6-.4.4-.3.9-.6 1.4-.8.1 0 .1 0 .1.1s0 .1-.1.1c-.5.2-.9.5-1.4.8 0 .2-.2.3-.5.4zm132.4.2c-.1 0-.1-.1 0 0-.1-.1-.1-.2-.1-.2l.3-.2c.5-.3 1.1-.7 1.7-1h.2v.2c-.6.3-1.1.7-1.7 1zm-95.2.1s-.1 0-.1-.1v-.2c.3-.2.7-.4 1-.6s.6-.4.9-.5h.2v.2c-.3.2-.6.4-.9.5-.4.3-.7.5-1.1.7zm62.9 0c-.1 0-.1-.1 0 0-.1-.1-.1-.2 0-.2.3-.2.6-.3.8-.5l.9-.6h.1v.1c-.3.2-.6.4-.9.5-.3.3-.6.5-.9.7zm-28.4.1c-.1 0-.1 0 0 0-.1-.1-.1-.2 0-.2l1.5-.9.2-.2h.1v.1l-.2.2c-.6.4-1.1.7-1.6 1zm105.4.2s-.1 0-.1-.1 0-.1.1-.1c.5-.2 1-.5 1.5-.8.2-.1.3-.2.5-.3h.2v.2c-.2.1-.3.2-.5.3-.7.2-1.2.6-1.7.8zm-314.8.1s-.1 0 0 0c-.1-.1-.1-.1 0-.2.6-.3 1.1-.7 1.6-1 .1-.1.3-.2.4-.3h.1v.1c-.1.1-.3.2-.4.3-.5.5-1.1.8-1.7 1.1zm29.9 0s-.1 0-.1-.1v-.2c.7-.3 1.3-.7 2-1.2h.2v.2c-.6.5-1.3.9-2.1 1.3zm54.9 0s0-.1 0 0c.6-.4 1.3-.8 2-1.4h.1v.1c-.8.6-1.4 1-2.1 1.3zm186.6.1c-.1 0-.1 0 0 0-.1-.1-.1-.1 0-.1l.2-.1c.5-.3 1.1-.6 1.6-1h.1v.1c-.5.4-1.1.7-1.6 1zm-163.2 0c-.1 0-.1 0 0 0-.1-.1-.1-.1 0-.2.5-.2 1-.5 1.4-.8l.2-.1h.1v.1l-.2.1c-.5.4-1 .7-1.5.9zm67.7 0s-.1 0 0 0c-.1 0-.1 0 0 0 .4-.3.9-.5 1.3-.8.2-.1.4-.2.5-.3h.1v.1c-.2.1-.4.2-.5.3-.5.3-.9.6-1.4.7zm50.2-44.6s-.1 0-.1-.1 0-.1.1-.2c.4-.2.9-.5 1.3-.7.2-.2.5-.3.7-.5h.2v.2c-.2.1-.5.3-.7.4-.6.4-1 .7-1.5.9z"/></g></svg>