<svg viewBox="0 0 368.6 65.2" xmlns="http://www.w3.org/2000/svg"><g fill="#141414"><path d="m1.3 1.5h46.3v15.5h-15.4v46.4h-15.5v-46.3h-15.4z"/><path d="m159.2 1.6h15.5v61.8h-15.5z"/><path d="m182.7 1.6h15.7c7.6 12.3 15.3 24.6 22.9 36.9.1-12.3 0-24.6 0-36.9h15.5v61.8h-14.9c-.3 0-.7.1-.8-.3-7.6-12.3-15.3-24.5-22.9-36.8-.1 6 0 12 0 18v19.1h-15.5z"/><path d="m256.5 1.8c1.4-.3 2.9-.2 4.4-.2h24.9v15.4c-8.9.1-17.7 0-26.6 0v30.9h14.7c.2 0 .4 0 .7-.1-.1-3.1 0-6.1 0-9.2-2.6-.1-5.3 0-7.9-.1v-11.6h23.3v17.9c0 2.1.2 4.3-.3 6.3-1 4.7-4.4 8.9-8.8 10.8-2.1.9-4.3 1.4-6.6 1.3h-15.4c-4.3 0-8.5-2-11.3-5.2-2.3-2.6-3.7-6-3.9-9.5v-31.6c-.1-3.4 1.1-6.8 3.1-9.5 2.4-2.9 5.9-5 9.7-5.6z"/><path d="m350.9 1.6h15.4v42.5h-15.4z"/><path d="m53.8 8.7c2.6-4.1 7.3-6.9 12.2-7.1h15.8c3.5-.2 6.9 1 9.7 3.1 3.9 2.9 6.3 7.8 6.2 12.6v46.1h-15.5v-15.4h-15.2v15.4h-15.5v-46.5c-.1-2.9.7-5.8 2.3-8.2zm13.1 23.7c5.1.1 10.2 0 15.2 0v-15.4h-15.2z"/><path d="m105.3 1.6h30.8c3.4-.1 6.8 1.1 9.5 3.1 4.1 3 6.4 8.1 6.1 13.2v15.2c-.1 6-4.2 11.6-9.8 13.8 2.3 5.5 4.6 11 7 16.5-5.2.1-10.4 0-15.6 0-2.1-5.1-4.4-10.2-6.5-15.4-2-.1-4 0-6.1 0v15.4h-15.5c.2-20.6.2-41.2.1-61.8zm15.6 30.9h15.4v-15.4h-15.4z"/><path d="m301.4 6.1c2.6-2.7 6.3-4.3 10-4.5h16.2c1.9-.1 3.8.3 5.6 1 4.7 1.8 8.4 6 9.5 11 .5 2 .4 4.1.4 6.1v43.7h-15.5v-15.4h-15.2v15.4c-5.2.1-10.4 0-15.5 0v-47.1c.1-3.8 1.8-7.5 4.5-10.2zm11 10.9v15.4h15.2v-15.4z"/><path d="m350.9 47.9h15.4v15.5h-15.4z"/></g></svg>