<svg enable-background="new 0 0 373.4 55.9" viewBox="0 0 373.4 55.9" xmlns="http://www.w3.org/2000/svg"><path d="m12.3 30.8v-14l-4.2 1.9s-1.1 2.4-.9 5.9c.1 2.7 1.7 6 2.8 7.3zm12.3-28.8c1 .1 2.7.6 3.9 1.7 1.3 1.3 1.6 3.2 1.1 4.9-.4 1.6-.9 2.4-2.4 3.4-1.6 1.1-3.5 1-3.5 1v6.7l3.3 2.6-3.3 2.6v9.2s3.3-1.9 5.3-6.1c0 0 .1-.2.3-.7.2 1.1.1 3.4-1.2 6.3-1 2.2-2.7 4.3-4.9 5.5-3.9 2.2-6.8 2.4-9.9 1.7-3.7-.8-7-2.8-9.2-6.4-1.6-2.5-2.3-5.5-2.2-8.6.1-6.2 4.7-11.5 10.1-13.5.6-.2.9-.4 1.8-.5-.4.3-.9.7-1.5 1.1-1.7 1.1-3.2 3.4-3.8 5.1l10.3-4.6v14.6l-8.3 4.2c1 1.3 3.8 3.3 6.3 3.6 4.2.5 6.7-1.4 6.7-1.4v-9.4l-3.5-2.6 3.3-2.6v-6.8c-1.8-.2-3.9-.8-5.2-1.1-1.9-.5-8-2.2-9-2.3s-2.2-.1-2.9.5c-.8.7-1.2 1.9-.9 2.9.2.6.6.9.9 1.3 0 0-.4 0-1-.4-1.2-.8-2.1-2.1-2.2-3.8-.1-2.2.8-4.2 2.6-5.6 1.6-1 3.4-1.7 5.5-1.4 3 .4 7.1 2.2 10.8 3 1.4.3 2.5.5 3.5-.1.5-.3 1.3-1.2.6-2.3-.8-1.3-2.3-1.3-3.5-1.5 1-.2 1.3-.2 2.1-.2z"/><path d="m64.8 27.1-4.7 3.4v-11.4zm-.1-11s-3.2 1.9-5.3 3.2-5 2.7-5 2.7v13.3l-1.9 1.5.3.3 1.9-1.5 5.8 5.3 10.1-8-.2-.3-5.7 4.4-4.6-4.3v-1.6l9.2-6.8z"/><path d="m38.2 45.9c1.3.3 3.7.5 6.5-.9 3.1-1.6 4.7-4.9 4.7-8.3l.1-4.8v-10.6l2-1.5-.2-.3-2 1.5-4.5-5.1-5.8 5v-17l-7.3 5.6c.3.2 1.4.4 1.4 1.8v23.8l-3.1 2.3.2.3 1.5-1.1 4.1 3.9 6.5-5.2-.2-.3-1.5 1.2-1.6-1.6v-13.3l1.9-1.6 2.8 3.5v11.5c0 3 0 6.8-1.6 8.7-1.7 1.9-2.3 2-3.9 2.5"/><path d="m83.5 44.7c-2.6-.3-3.7-1.9-3.7-3.1 0-.8.7-2.4 2.3-2.6s3.2.5 4.6 2.1l6-6.7-.3-.3-1.6 1.9c-1.6-1.9-4-3.1-6.3-3.4v-20.3l15.7 28.5s.1.3.8.3c.6 0 .4-.4.4-.4v-28.7c1.3-.1 3.2-.8 4.2-1.7 3-3.1 1.8-6.5 1.5-6.8-.2 1.5-1.3 3-3.2 3-2.5 0-4-1.8-4-1.8l-6 6.9.3.3 1.7-2c2.1 1.9 3.6 2.1 5.2 2.2v16.6l-11.7-21.1c-1-1.7-2.7-3.3-5.2-3.3-2.9 0-4.9 2.5-5.2 4.7-.3 2.5 0 3 0 3s.4-2.8 2.1-2.7c1.5 0 2.3 1.4 2.9 2.5v6.1c-1.6.1-5.7.3-5.9 4.6 0 1.6 1 3.3 1.8 3.8 1.1.7 2 .7 2 .7s-1.3-.7-.9-2.1c.4-1.3 3-1.5 3.1-.9v8.6c-1.3 0-5.3.1-7.1 3.6-1.1 2.1-1 4.4.1 6.1 1 1.3 3 3 6.4 2.4"/><path d="m116.7 27.1-4.7 3.4v-11.4zm-.2-11s-3.2 1.9-5.3 3.2-5 2.7-5 2.7v13.3l-1.9 1.5.3.3 1.9-1.5 5.8 5.3 10.1-8-.2-.3-5.6 4.4-4.6-4.3v-1.6l9.2-6.8z"/><path d="m130.7 41-5-4.1-2.2 1.6-.2-.3 2.2-1.6v-11.6c.1-4.7-4.3-3.6-4.1-8.6.1-2.2 2.2-3.9 3.3-4.4 1.2-.6 2.4-.6 2.4-.6s-2 1.3-1.5 3.1c.8 2.8 5.6 3.1 5.7 6.8v13.1l3.6 2.8.9-.7v-14.2l-1.9-1.9 4.9-4.4 4.5 4-1.7 1.9v12.5l4.2 3.5.8-.5v-15.1l-1.9-1.8 4.9-4.5 4.6 3.8 1.8-1.6.2.3-4.2 3.7v12.3l-10.5 6.5-5.4-4.3z"/><path d="m348.3 27.1-4.7 3.4v-11.4zm-.1-11s-3.2 1.9-5.3 3.2-5 2.7-5 2.7v13.3l-1.9 1.5.3.3 1.9-1.5 5.8 5.3 10.1-8-.2-.3-5.6 4.4-4.6-4.3v-1.6l9.2-6.8z"/><path d="m300.7 21.7.2.3 1.9-1.7 2.8 3.2v11.1l-1.3 1.2 4.4 5 4.5-4.5-1.9-1.9v-13.3l1.2-.9 3.1 3.7v10.9l-1.2 1.2 4.2 4.7 4.4-4.5-1.6-1.7-.1-13.3 1.2-1 3.3 3.6v10.9l-1.1 1.1 4.6 5 6.2-5.7-.3-.3-1.5 1.4-2.3-2.6v-12.4l2.2-1.7-.2-.3-2.2 1.7-4.2-4.7-6 4.7-4.2-4.6-5.8 4.6-4.2-4.5z"/><path d="m288.1 21.4.3.2 1.6-1.3 2.5 2.9v12.6l-1.8 1.6.3.3 1.8-1.6 4.1 4.7 5.9-5.3-.3-.3-1.7 1.5-2.4-2.8v-12.3l2-1.7-.2-.3-2 1.7-4.3-5z"/><path d="m289.8 10.9 4.4-4 3.6 4-4.4 4z"/><path d="m271.6 30.8v-14l-4.2 1.9s-1.1 2.4-.9 5.9c.1 2.7 1.7 6 2.8 7.3zm12.3-28.8c1 .1 2.7.6 3.9 1.7 1.3 1.3 1.6 3.2 1.1 4.9-.4 1.6-.9 2.4-2.4 3.4-1.6 1.1-3.5 1-3.5 1v6.7l3.3 2.6-3.3 2.6v9.2s3.3-1.9 5.3-6.1c0 0 .1-.2.3-.7.2 1.1.1 3.4-1.2 6.3-1 2.2-2.7 4.3-4.9 5.5-3.9 2.2-6.8 2.4-9.9 1.7-3.7-.8-7-2.8-9.2-6.4-1.6-2.5-2.3-5.5-2.2-8.6.1-6.2 4.7-11.5 10.1-13.5.6-.2.9-.4 1.8-.5-.4.3-.9.7-1.5 1.1-1.7 1.1-3.2 3.4-3.8 5.1l10.3-4.6v14.6l-8.3 4.2c1 1.3 3.8 3.3 6.3 3.6 4.2.5 6.7-1.4 6.7-1.4v-9.4l-3.3-2.6 3.3-2.6v-6.8c-1.8-.2-3.9-.8-5.2-1.1-1.9-.5-8-2.2-9-2.3s-2.2-.1-2.9.5c-.7.7-1.2 1.8-.9 2.8.2.6.6.9.9 1.3 0 0-.4 0-1-.4-1.2-.7-2.1-2.1-2.2-3.8-.1-2.2.8-4.2 2.6-5.5 1.6-1 3.4-1.7 5.5-1.4 3 .4 7.1 2.2 10.8 3 1.4.3 2.5.5 3.5-.1.5-.3 1.3-1.2.6-2.3-.8-1.3-2.3-1.3-3.5-1.5.8-.2 1.1-.2 1.9-.2z"/><path d="m361.4 18.7v6.6l2.2 1.9s4.8-3.8 6.5-7.4c0 0-2.1 2.9-5 2-2.5-.7-3.7-3.1-3.7-3.1m-5.4 17.5s2.1-3.5 5.7-2.7c3.5.7 4.6 4.4 4.6 4.4v-8.4l-2.4-2.1c-2.6 2.6-7.3 6.5-7.9 8.8zm3.4 6.4c-.7.2-3.6-.5-4.3-3.5-.7-2.9 1.4-4.9 4.5-8.1l-3.6-3.3v-6.4s2.7-1.3 4.8-2.6 4.2-2.7 4.2-2.7 1.6 2 3.3 1.8c2.8-.2 2.6-2.4 2.6-2.9.5.8 1.7 3.4-3.1 9l4 3.2v8.3s-4.6 2.4-9 5.6c0 0-2.4-3-4.5-1.6-1.5.8-.9 2.5 1.1 3.2z"/><path d="m200 33.2 5.1 4.6v-14.1l-5.1-4.7zm10.6-11.6 1.8-1.6.3.3-1.7 1.6v13.1s-3.3 1.8-5.6 3.1-4.8 2.8-4.8 2.8l-6.1-5.1-1.6 1.4-.3-.3 1.7-1.5v-14.1s2.9-1.3 5.3-2.7c2.2-1.2 4.6-2.6 4.6-2.6z"/><path d="m222.5 20.3 3.9-3.9s.5.5 1 .7c.3.1 1.4.7 2.5.2.6-.3.7-.4 1.3-1 .1 3.1-1.3 5.2-3.2 6.1-.8.4-2.9 1.1-5.2-1.7v14.1l2.4 2.2 2-1.7.2.3-6.4 5.3-4.8-4.4-1.7 1.6-.3-.3 2.7-2.4v-12.2l-2-2.7-1.8 1.5-.3-.3 6.2-5.5z"/><path d="m238.7 26.2 7.1-10.4s.9 1.1 2.6 1.5c2.2.6 4.2-1.6 4.2-1.6-.4 2.8-1.8 5.9-4.7 6.4-2.6.4-4.9-1.6-4.9-1.6l-.5.7 9.9 14.9 2-1.7.3.3-6.8 5.9z"/><path d="m232.9 12.4c0-2.2-.9-3.6-2.1-3.5l7.8-5.5v30.9l2.1 2.2 1.6-1.3.2.3-6.3 5.5-4.2-4-1.7 1.5-.3-.3 3-2.6v-23.2"/><path d="m183 21s-.9 1-2.2 1-2.2-1-2.2-1v4.2s.9-1 2.2-1c1.4 0 2.2.9 2.2.9zm0-9-3-2.6-1.4 1.1v9.9s.9 1.1 2.2 1.1c1.4 0 2.2-1.1 2.2-1.1zm-4.4 28.1s1.8.5 3.1-.6c1.5-1.2 1.3-2.9 1.3-2.9v-10.7s-.8-1.1-2.2-1.1c-1.3 0-2.2 1.1-2.2 1.1zm-10.7-28.3c0-2.1-.8-3.2-2.2-3.3-2 0-2.4 2.7-2.4 2.7s-.4-2.1 1.4-4.1c1-1.1 2.9-2.6 5.8-1.9 3 .7 3.9 3.1 3.9 5.2v28.7s1.1.1 1.9.3c.9.2 1.8.4 1.8.4v-34.5h.4v4.7l6.2-5 4.6 4.1 2.1-1.8.2.3-2.2 1.9v26.7c-.1 1.7-.4 3.5-2 4.5-3.7 2.2-8.1-.3-12-.9-2.9-.4-7.5-1-8.7 1.7-.4.9-.4 2.2 1 3.1 2.7 1.8 14.5-3 18.6-1.1 3.7 1.7 3.7 4.5 3.1 6.3-1 3.5-5.4 4.1-5.4 4.1s2.2-1.3 1.6-3.4c-.3-1.1-1-1.4-3.4-1.1-5.1.6-11.2 3-15.3 1.3-2.1-.9-3.6-3.5-3.4-6.1.1-3.7 4.4-5.2 4.4-5.2v-13.8c-.1-.5-2.4-.4-2.9.6-.8 1.5.9 2.2.9 2.2s-1.4.2-2.6-1.2c-.6-.7-1.8-3-.2-5.2 1.3-1.8 2.8-2.1 4.8-2.3z"/></svg>