<svg viewBox="0 0 71.2 48.9" xmlns="http://www.w3.org/2000/svg"><path d="M1.2 19.8C1 18.7.8 18.6.5 18.5l-.3-.1v-.3h3.4v.3l-.3.1c-.6.1-.5.7-.4 1.5l1.4 7.2 1.1-5.7-.4-2c-.1-.7-.2-.9-.6-1l-.2-.1v-.3h3.3v.3l-.4.1c-.6.1-.5.8-.4 1.5l1.4 7.2 1.4-6.8c.3-1.4.1-1.8-.4-1.9l-.4-.1v-.3h2.5v.3l-.3.1c-.4.1-.5.5-.8 1.7L7.9 30.8h-.5l-1.7-8.3-1.6 8.3h-.5zm17.9 10.5h.7c1.6 0 2-1.8 2.2-3.8h.3v4.2H13v-.3l.4-.1c.8-.1.8-.4.6-1.5l-.3-1.6h-2.2l-.2 1.2c-.3 1.4-.1 1.8.4 1.9l.4.1v.3H9.3v-.3l.3-.1c.5-.1.6-.4.9-1.7L12.7 18h.5l2.3 11c.2 1.1.3 1.4 1 1.4.6 0 .8-.3.8-.8V19.2c0-.5-.2-.7-.5-.8l-.4-.1V18H20v.3l-.5.1c-.4.1-.5.2-.5.7zm-7.7-3.5h2.1l-1.1-5.2zm13.9 3.5h.7c1.6 0 2-1.8 2.2-3.8h.3v4.2h-5.8v-.3l.4-.1c.4-.1.5-.3.5-.8V19.2c0-.5-.2-.7-.5-.8l-.4-.1V18h3.6v.3l-.5.1c-.4.1-.5.2-.5.7zm9.1.5c-1.1 0-1.4-.7-1.8-.7-.2 0-.4.1-.6.7h-.2v-4.2h.3c.2 2.4 1.1 3.8 2.3 3.8.8 0 1.4-.7 1.4-2.1 0-2.8-4.1-4.1-4.1-7.2 0-1.7.9-3 2.4-3 1 0 1.2.7 1.6.7.2 0 .4-.2.5-.6h.2v4.2h-.3c-.2-2.1-.8-3.8-2.1-3.8-.9 0-1.1.9-1.1 1.5 0 2.7 4.1 3.6 4.1 7.4.1 1.8-1 3.2-2.6 3.3zm6.7-1.3c0 .5.2.7.5.8l.5.1v.3h-3.7v-.3l.5-.1c.4-.1.5-.3.5-.8v-11H39c-1.1 0-1.6 1.8-1.7 3.8H37v-4.2h6.4v4.2h-.3c-.1-2-.6-3.8-1.7-3.8H41zm2.8.9l.4-.1c.4-.1.5-.3.5-.8V19.3c0-.5-.2-.7-.5-.8l-.4-.1v-.3h3.5c1.6 0 3 1 3 3 0 1.6-.7 2.7-2.3 3.1 1.7.3 1.7 1.1 1.8 3.2L50 29c.1.9.1 1.1.3 1.1.3 0 .4-.6.4-1.2v-.3h.3v.4c0 1-.2 1.7-1.3 1.7-1 0-1.5-.6-1.6-2.7l-.1-2.3c0-1.1-.3-1.3-.8-1.3h-.9v5.1c0 .5.2.7.5.8l.4.1v.3h-3.5zm2.6-6.3h.6c1 0 1.5-.3 1.5-2.7s-.7-2.9-1.4-2.9h-.7zm7.3 6.2h1.3c1.6 0 2-1.9 2.2-3.8h.3v4.2h-6.3v-.2l.4-.1c.4-.1.5-.3.5-.8V19.3c0-.5-.2-.7-.5-.8l-.4-.1v-.3h6.1v4.2h-.3c-.2-2-.6-3.8-2-3.8h-1.3V24h.6c.8-.1 1.1-.7 1.3-2.3h.3v5.1h-.3c-.2-2-.5-2.3-1.3-2.4h-.6zm6.8 0h1.3c1.6 0 2-1.9 2.2-3.8h.3v4.2H58v-.2l.4-.1c.4-.1.5-.3.5-.8V19.3c0-.5-.2-.7-.5-.8l-.4-.1v-.3h6.1v4.2h-.3c-.2-2-.6-3.8-2-3.8h-1.3V24h.6c.8-.1 1.1-.7 1.3-2.3h.3v5.1h-.3c-.2-2-.5-2.3-1.3-2.4h-.6zm8.1-.8c0 .6.2.7.5.8l.6.1v.3H66v-.3l.5-.1c.4-.1.5-.3.5-.8v-11h-.4c-1.1 0-1.6 1.8-1.7 3.8h-.3v-4.2H71v4.2h-.3c-.1-2-.6-3.8-1.7-3.8h-.4zM28.9 11.4c0 .6.2.7.5.8l.6.1v.3h-3.8v-.3l.5-.1c.4-.1.5-.3.5-.8V.4h-.4c-1.1 0-1.6 1.8-1.7 3.8h-.3V0h6.4v4.2h-.3c-.1-2-.6-3.8-1.7-3.8h-.4zm2.8 1l.4-.1c.4-.1.5-.3.5-.8V1.1c0-.5-.2-.7-.5-.8l-.4-.1V0h3.6v.3l-.4.1c-.3.1-.5.2-.5.7v4.8h2.8V1.1c0-.5-.2-.7-.5-.7l-.4-.1V0h3.6v.3l-.4.1c-.4.1-.5.3-.5.8v10.3c0 .5.2.7.5.8l.4.1v.3h-3.6v-.3l.4-.1c.3-.1.5-.3.5-.8V6.4h-2.8v5.1c0 .5.2.7.5.8l.4.1v.3h-3.6zm11-.1H44c1.6 0 2-1.9 2.2-3.8h.3v4.2h-6.3v-.3l.4-.1c.4-.1.5-.3.5-.8V1.2c0-.5-.2-.7-.5-.8l-.4-.1V0h6.1v4.2H46c-.2-2-.6-3.8-2-3.8h-1.3v5.5h.6c.8-.1 1.1-.7 1.3-2.3h.3v5.1h-.3c-.2-2-.5-2.3-1.3-2.4h-.6zM16.2 45.8c0 2-1 3-2.5 3-1.4 0-2.2-1.1-2.2-2.3 0-.9.7-1.4 1.3-1.3.4.1.8.3.7 1-.1.9-1 .9-1.1 1.4 0 .3.4.9 1 .9 1 0 1-1.3 1-2.3v-8.8c0-.5-.2-.7-.6-.7l-.5-.1v-.3H17v.3l-.4.1c-.4.1-.5.3-.5.8zm4.2 3c-2.1 0-3.2-2.9-3.2-6.4s1-6.4 3.2-6.4 3.2 2.9 3.2 6.4c0 3.6-1 6.4-3.2 6.4zm0-12.3c-.9 0-1.4.7-1.4 5.9 0 5.3.4 6.1 1.4 6.1s1.4-.7 1.4-6.1c0-5.2-.4-5.9-1.4-5.9zm10.4 12l.4-.1c.4-.1.5-.3.5-.8V37.3c0-.6-.3-.8-.9-.8-.8 0-1 .4-1 1.4v7.9c0 2-.7 3-2.4 3-1.8 0-2.8-1.1-2.8-3v-8.6c0-.5-.1-.7-.5-.8l-.4-.1V36h3.6v.3l-.5.1c-.4.1-.6.2-.6.7V46c0 1.8.5 2.2 1.4 2.2 1.1 0 1.6-.6 1.6-2.4v-7.3c0-1.5 0-1.9-.7-2l-.3-.1v-.3h6c1.6 0 3 1 3 3 0 1.6-.7 2.7-2.3 3.1 1.7.3 1.7 1.1 1.8 3.2l.1 1.6c.1.9.1 1.1.3 1.1.3 0 .4-.6.4-1.2v-.3h.5v.4c0 1-.2 1.7-1.3 1.7-1 0-1.5-.6-1.6-2.7l-.1-2.3c0-1.1-.3-1.3-.8-1.3h-.9v5.1c0 .5.2.7.5.8l.4.1v.3h-3.5zm2.6-6.3h.6c1 0 1.5-.3 1.5-2.7s-.7-2.9-1.4-2.9h-.7zm4.9-5.7l-.3-.1v-.2h2.4l3.3 8.3v-6c0-1.3 0-1.8-.9-2l-.3-.1v-.3h2.7v.3l-.2.1c-.8.2-.7.8-.7 2.1v10.1h-.6l-4.1-10.1v7.7c0 1.5 0 1.9 1.2 2.1v.3h-2.6v-.3l.3-.1c.7-.1.7-.8.7-2.1v-8.7c-.4-.5-.6-.9-.9-1zm16.1 11.9h.7c1.6 0 2-1.8 2.2-3.8h.3v4.2h-9.3v-.3l.4-.1c.8-.1.8-.4.6-1.5l-.3-1.6h-2.2l-.2 1.2c-.3 1.4-.1 1.8.4 1.9l.4.1v.3h-2.5v-.3l.3-.1c.5-.1.6-.4.9-1.7l2.2-10.6h.5l2.3 11c.2 1.1.3 1.4 1 1.4.6 0 .8-.3.8-.8V37.3c0-.5-.2-.7-.5-.8l-.4-.1v-.3h3.6v.3l-.5.1c-.4.1-.5.2-.5.7zm-7.7-3.5h2.1l-1-5.2z" fill="#1d1d1b"/></svg>